<mxfile host="Electron" agent="Mozilla/5.0 (Macintosh; Intel Mac OS X 10_15_7) AppleWebKit/537.36 (KHTML, like Gecko) draw.io/24.7.8 Chrome/128.0.6613.36 Electron/32.0.1 Safari/537.36" version="24.7.8">
  <diagram name="Page-1" id="mTaThZvrZ4iqHnapH3oN">
    <mxGraphModel dx="733" dy="555" grid="1" gridSize="10" guides="1" tooltips="1" connect="1" arrows="1" fold="1" page="1" pageScale="1" pageWidth="827" pageHeight="1169" math="0" shadow="0">
      <root>
        <mxCell id="0" />
        <mxCell id="1" parent="0" />
        <mxCell id="GqbEpFNVcH-FoVS1KwiD-380" value="" style="rounded=1;whiteSpace=wrap;html=1;" parent="1" vertex="1">
          <mxGeometry x="471" y="427" width="90" height="47" as="geometry" />
        </mxCell>
        <mxCell id="GqbEpFNVcH-FoVS1KwiD-191" value="" style="group" parent="1" vertex="1" connectable="0">
          <mxGeometry x="10" y="30" width="190" height="181" as="geometry" />
        </mxCell>
        <mxCell id="GqbEpFNVcH-FoVS1KwiD-4" value="" style="html=1;whiteSpace=wrap;shape=isoCube2;backgroundOutline=1;isoAngle=15;fillColor=#dae8fc;strokeColor=#6c8ebf;" parent="GqbEpFNVcH-FoVS1KwiD-191" vertex="1">
          <mxGeometry x="30" y="100" width="40" height="40" as="geometry" />
        </mxCell>
        <mxCell id="GqbEpFNVcH-FoVS1KwiD-8" value="" style="html=1;whiteSpace=wrap;shape=isoCube2;backgroundOutline=1;isoAngle=15;fillColor=#ffe6cc;strokeColor=#d79b00;" parent="GqbEpFNVcH-FoVS1KwiD-191" vertex="1">
          <mxGeometry x="50" y="110" width="40" height="40" as="geometry" />
        </mxCell>
        <mxCell id="GqbEpFNVcH-FoVS1KwiD-12" value="" style="html=1;whiteSpace=wrap;shape=isoCube2;backgroundOutline=1;isoAngle=15;fillColor=#f8cecc;strokeColor=#b85450;" parent="GqbEpFNVcH-FoVS1KwiD-191" vertex="1">
          <mxGeometry x="70" y="120" width="40" height="40" as="geometry" />
        </mxCell>
        <mxCell id="GqbEpFNVcH-FoVS1KwiD-13" value="" style="html=1;whiteSpace=wrap;shape=isoCube2;backgroundOutline=1;isoAngle=15;fillColor=#d5e8d4;strokeColor=#82b366;" parent="GqbEpFNVcH-FoVS1KwiD-191" vertex="1">
          <mxGeometry x="150" y="100" width="40" height="40" as="geometry" />
        </mxCell>
        <mxCell id="GqbEpFNVcH-FoVS1KwiD-14" value="" style="html=1;whiteSpace=wrap;shape=isoCube2;backgroundOutline=1;isoAngle=15;fillColor=#d5e8d4;strokeColor=#82b366;" parent="GqbEpFNVcH-FoVS1KwiD-191" vertex="1">
          <mxGeometry x="130" y="110" width="40" height="40" as="geometry" />
        </mxCell>
        <mxCell id="GqbEpFNVcH-FoVS1KwiD-15" value="" style="html=1;whiteSpace=wrap;shape=isoCube2;backgroundOutline=1;isoAngle=15;fillColor=#d5e8d4;strokeColor=#82b366;" parent="GqbEpFNVcH-FoVS1KwiD-191" vertex="1">
          <mxGeometry x="110" y="120" width="40" height="40" as="geometry" />
        </mxCell>
        <mxCell id="GqbEpFNVcH-FoVS1KwiD-16" value="" style="html=1;whiteSpace=wrap;shape=isoCube2;backgroundOutline=1;isoAngle=15;fillColor=#d5e8d4;strokeColor=#82b366;" parent="GqbEpFNVcH-FoVS1KwiD-191" vertex="1">
          <mxGeometry x="90" y="130" width="40" height="40" as="geometry" />
        </mxCell>
        <mxCell id="GqbEpFNVcH-FoVS1KwiD-20" value="" style="html=1;whiteSpace=wrap;shape=isoCube2;backgroundOutline=1;isoAngle=15;fillColor=#dae8fc;strokeColor=#6c8ebf;" parent="GqbEpFNVcH-FoVS1KwiD-191" vertex="1">
          <mxGeometry x="30" y="80" width="40" height="40" as="geometry" />
        </mxCell>
        <mxCell id="GqbEpFNVcH-FoVS1KwiD-24" value="" style="html=1;whiteSpace=wrap;shape=isoCube2;backgroundOutline=1;isoAngle=15;fillColor=#ffe6cc;strokeColor=#d79b00;" parent="GqbEpFNVcH-FoVS1KwiD-191" vertex="1">
          <mxGeometry x="50" y="90" width="40" height="40" as="geometry" />
        </mxCell>
        <mxCell id="GqbEpFNVcH-FoVS1KwiD-28" value="" style="html=1;whiteSpace=wrap;shape=isoCube2;backgroundOutline=1;isoAngle=15;fillColor=#f8cecc;strokeColor=#b85450;" parent="GqbEpFNVcH-FoVS1KwiD-191" vertex="1">
          <mxGeometry x="70" y="100" width="40" height="40" as="geometry" />
        </mxCell>
        <mxCell id="GqbEpFNVcH-FoVS1KwiD-29" value="" style="html=1;whiteSpace=wrap;shape=isoCube2;backgroundOutline=1;isoAngle=15;fillColor=#d5e8d4;strokeColor=#82b366;" parent="GqbEpFNVcH-FoVS1KwiD-191" vertex="1">
          <mxGeometry x="150" y="80" width="40" height="40" as="geometry" />
        </mxCell>
        <mxCell id="GqbEpFNVcH-FoVS1KwiD-30" value="" style="html=1;whiteSpace=wrap;shape=isoCube2;backgroundOutline=1;isoAngle=15;fillColor=#d5e8d4;strokeColor=#82b366;" parent="GqbEpFNVcH-FoVS1KwiD-191" vertex="1">
          <mxGeometry x="130" y="90" width="40" height="40" as="geometry" />
        </mxCell>
        <mxCell id="GqbEpFNVcH-FoVS1KwiD-31" value="" style="html=1;whiteSpace=wrap;shape=isoCube2;backgroundOutline=1;isoAngle=15;fillColor=#d5e8d4;strokeColor=#82b366;" parent="GqbEpFNVcH-FoVS1KwiD-191" vertex="1">
          <mxGeometry x="110" y="100" width="40" height="40" as="geometry" />
        </mxCell>
        <mxCell id="GqbEpFNVcH-FoVS1KwiD-32" value="" style="html=1;whiteSpace=wrap;shape=isoCube2;backgroundOutline=1;isoAngle=15;fillColor=#d5e8d4;strokeColor=#82b366;" parent="GqbEpFNVcH-FoVS1KwiD-191" vertex="1">
          <mxGeometry x="90" y="110" width="40" height="40" as="geometry" />
        </mxCell>
        <mxCell id="GqbEpFNVcH-FoVS1KwiD-52" value="" style="html=1;whiteSpace=wrap;shape=isoCube2;backgroundOutline=1;isoAngle=15;fillColor=#dae8fc;strokeColor=#6c8ebf;" parent="GqbEpFNVcH-FoVS1KwiD-191" vertex="1">
          <mxGeometry x="30" y="60" width="40" height="40" as="geometry" />
        </mxCell>
        <mxCell id="GqbEpFNVcH-FoVS1KwiD-56" value="" style="html=1;whiteSpace=wrap;shape=isoCube2;backgroundOutline=1;isoAngle=15;fillColor=#ffe6cc;strokeColor=#d79b00;" parent="GqbEpFNVcH-FoVS1KwiD-191" vertex="1">
          <mxGeometry x="50" y="70" width="40" height="40" as="geometry" />
        </mxCell>
        <mxCell id="GqbEpFNVcH-FoVS1KwiD-60" value="" style="html=1;whiteSpace=wrap;shape=isoCube2;backgroundOutline=1;isoAngle=15;fillColor=#f8cecc;strokeColor=#b85450;" parent="GqbEpFNVcH-FoVS1KwiD-191" vertex="1">
          <mxGeometry x="70" y="80" width="40" height="40" as="geometry" />
        </mxCell>
        <mxCell id="GqbEpFNVcH-FoVS1KwiD-61" value="" style="html=1;whiteSpace=wrap;shape=isoCube2;backgroundOutline=1;isoAngle=15;fillColor=#d5e8d4;strokeColor=#82b366;" parent="GqbEpFNVcH-FoVS1KwiD-191" vertex="1">
          <mxGeometry x="150" y="60" width="40" height="40" as="geometry" />
        </mxCell>
        <mxCell id="GqbEpFNVcH-FoVS1KwiD-62" value="" style="html=1;whiteSpace=wrap;shape=isoCube2;backgroundOutline=1;isoAngle=15;fillColor=#d5e8d4;strokeColor=#82b366;" parent="GqbEpFNVcH-FoVS1KwiD-191" vertex="1">
          <mxGeometry x="130" y="70" width="40" height="40" as="geometry" />
        </mxCell>
        <mxCell id="GqbEpFNVcH-FoVS1KwiD-63" value="" style="html=1;whiteSpace=wrap;shape=isoCube2;backgroundOutline=1;isoAngle=15;fillColor=#d5e8d4;strokeColor=#82b366;" parent="GqbEpFNVcH-FoVS1KwiD-191" vertex="1">
          <mxGeometry x="110" y="80" width="40" height="40" as="geometry" />
        </mxCell>
        <mxCell id="GqbEpFNVcH-FoVS1KwiD-64" value="" style="html=1;whiteSpace=wrap;shape=isoCube2;backgroundOutline=1;isoAngle=15;fillColor=#d5e8d4;strokeColor=#82b366;" parent="GqbEpFNVcH-FoVS1KwiD-191" vertex="1">
          <mxGeometry x="90" y="90" width="40" height="40" as="geometry" />
        </mxCell>
        <mxCell id="GqbEpFNVcH-FoVS1KwiD-65" value="" style="html=1;whiteSpace=wrap;shape=isoCube2;backgroundOutline=1;isoAngle=15;fillColor=#dae8fc;strokeColor=#6c8ebf;" parent="GqbEpFNVcH-FoVS1KwiD-191" vertex="1">
          <mxGeometry x="90" y="10" width="40" height="40" as="geometry" />
        </mxCell>
        <mxCell id="GqbEpFNVcH-FoVS1KwiD-66" value="" style="html=1;whiteSpace=wrap;shape=isoCube2;backgroundOutline=1;isoAngle=15;fillColor=#dae8fc;strokeColor=#6c8ebf;" parent="GqbEpFNVcH-FoVS1KwiD-191" vertex="1">
          <mxGeometry x="70" y="20" width="40" height="40" as="geometry" />
        </mxCell>
        <mxCell id="GqbEpFNVcH-FoVS1KwiD-67" value="" style="html=1;whiteSpace=wrap;shape=isoCube2;backgroundOutline=1;isoAngle=15;fillColor=#dae8fc;strokeColor=#6c8ebf;" parent="GqbEpFNVcH-FoVS1KwiD-191" vertex="1">
          <mxGeometry x="50" y="30" width="40" height="40" as="geometry" />
        </mxCell>
        <mxCell id="GqbEpFNVcH-FoVS1KwiD-68" value="" style="html=1;whiteSpace=wrap;shape=isoCube2;backgroundOutline=1;isoAngle=15;fillColor=#dae8fc;strokeColor=#6c8ebf;" parent="GqbEpFNVcH-FoVS1KwiD-191" vertex="1">
          <mxGeometry x="30" y="40" width="40" height="40" as="geometry" />
        </mxCell>
        <mxCell id="GqbEpFNVcH-FoVS1KwiD-69" value="" style="html=1;whiteSpace=wrap;shape=isoCube2;backgroundOutline=1;isoAngle=15;fillColor=#ffe6cc;strokeColor=#d79b00;" parent="GqbEpFNVcH-FoVS1KwiD-191" vertex="1">
          <mxGeometry x="110" y="20" width="40" height="40" as="geometry" />
        </mxCell>
        <mxCell id="GqbEpFNVcH-FoVS1KwiD-70" value="" style="html=1;whiteSpace=wrap;shape=isoCube2;backgroundOutline=1;isoAngle=15;fillColor=#ffe6cc;strokeColor=#d79b00;" parent="GqbEpFNVcH-FoVS1KwiD-191" vertex="1">
          <mxGeometry x="90" y="30" width="40" height="40" as="geometry" />
        </mxCell>
        <mxCell id="GqbEpFNVcH-FoVS1KwiD-71" value="" style="html=1;whiteSpace=wrap;shape=isoCube2;backgroundOutline=1;isoAngle=15;fillColor=#ffe6cc;strokeColor=#d79b00;" parent="GqbEpFNVcH-FoVS1KwiD-191" vertex="1">
          <mxGeometry x="70" y="40" width="40" height="40" as="geometry" />
        </mxCell>
        <mxCell id="GqbEpFNVcH-FoVS1KwiD-72" value="" style="html=1;whiteSpace=wrap;shape=isoCube2;backgroundOutline=1;isoAngle=15;fillColor=#ffe6cc;strokeColor=#d79b00;" parent="GqbEpFNVcH-FoVS1KwiD-191" vertex="1">
          <mxGeometry x="50" y="50" width="40" height="40" as="geometry" />
        </mxCell>
        <mxCell id="GqbEpFNVcH-FoVS1KwiD-73" value="" style="html=1;whiteSpace=wrap;shape=isoCube2;backgroundOutline=1;isoAngle=15;fillColor=#f8cecc;strokeColor=#b85450;" parent="GqbEpFNVcH-FoVS1KwiD-191" vertex="1">
          <mxGeometry x="130" y="30" width="40" height="40" as="geometry" />
        </mxCell>
        <mxCell id="GqbEpFNVcH-FoVS1KwiD-74" value="" style="html=1;whiteSpace=wrap;shape=isoCube2;backgroundOutline=1;isoAngle=15;fillColor=#f8cecc;strokeColor=#b85450;" parent="GqbEpFNVcH-FoVS1KwiD-191" vertex="1">
          <mxGeometry x="110" y="40" width="40" height="40" as="geometry" />
        </mxCell>
        <mxCell id="GqbEpFNVcH-FoVS1KwiD-75" value="" style="html=1;whiteSpace=wrap;shape=isoCube2;backgroundOutline=1;isoAngle=15;fillColor=#f8cecc;strokeColor=#b85450;" parent="GqbEpFNVcH-FoVS1KwiD-191" vertex="1">
          <mxGeometry x="90" y="50" width="40" height="40" as="geometry" />
        </mxCell>
        <mxCell id="GqbEpFNVcH-FoVS1KwiD-76" value="" style="html=1;whiteSpace=wrap;shape=isoCube2;backgroundOutline=1;isoAngle=15;fillColor=#f8cecc;strokeColor=#b85450;" parent="GqbEpFNVcH-FoVS1KwiD-191" vertex="1">
          <mxGeometry x="70" y="60" width="40" height="40" as="geometry" />
        </mxCell>
        <mxCell id="GqbEpFNVcH-FoVS1KwiD-77" value="" style="html=1;whiteSpace=wrap;shape=isoCube2;backgroundOutline=1;isoAngle=15;fillColor=#d5e8d4;strokeColor=#82b366;" parent="GqbEpFNVcH-FoVS1KwiD-191" vertex="1">
          <mxGeometry x="150" y="40" width="40" height="40" as="geometry" />
        </mxCell>
        <mxCell id="GqbEpFNVcH-FoVS1KwiD-78" value="" style="html=1;whiteSpace=wrap;shape=isoCube2;backgroundOutline=1;isoAngle=15;fillColor=#d5e8d4;strokeColor=#82b366;" parent="GqbEpFNVcH-FoVS1KwiD-191" vertex="1">
          <mxGeometry x="130" y="50" width="40" height="40" as="geometry" />
        </mxCell>
        <mxCell id="GqbEpFNVcH-FoVS1KwiD-79" value="" style="html=1;whiteSpace=wrap;shape=isoCube2;backgroundOutline=1;isoAngle=15;fillColor=#d5e8d4;strokeColor=#82b366;" parent="GqbEpFNVcH-FoVS1KwiD-191" vertex="1">
          <mxGeometry x="110" y="60" width="40" height="40" as="geometry" />
        </mxCell>
        <mxCell id="GqbEpFNVcH-FoVS1KwiD-80" value="" style="html=1;whiteSpace=wrap;shape=isoCube2;backgroundOutline=1;isoAngle=15;fillColor=#d5e8d4;strokeColor=#82b366;" parent="GqbEpFNVcH-FoVS1KwiD-191" vertex="1">
          <mxGeometry x="90" y="70" width="40" height="40" as="geometry" />
        </mxCell>
        <mxCell id="GqbEpFNVcH-FoVS1KwiD-81" value="B" style="text;html=1;align=center;verticalAlign=middle;whiteSpace=wrap;rounded=0;fontSize=14;fontStyle=1" parent="GqbEpFNVcH-FoVS1KwiD-191" vertex="1">
          <mxGeometry x="6" y="75" width="20" height="30" as="geometry" />
        </mxCell>
        <mxCell id="GqbEpFNVcH-FoVS1KwiD-82" value="T" style="text;html=1;align=center;verticalAlign=middle;whiteSpace=wrap;rounded=0;fontSize=14;fontStyle=1" parent="GqbEpFNVcH-FoVS1KwiD-191" vertex="1">
          <mxGeometry x="52" y="147" width="20" height="30" as="geometry" />
        </mxCell>
        <mxCell id="GqbEpFNVcH-FoVS1KwiD-83" value="E" style="text;html=1;align=center;verticalAlign=middle;whiteSpace=wrap;rounded=0;fontSize=14;fontStyle=1" parent="GqbEpFNVcH-FoVS1KwiD-191" vertex="1">
          <mxGeometry x="51" y="5" width="20" height="30" as="geometry" />
        </mxCell>
        <mxCell id="GqbEpFNVcH-FoVS1KwiD-192" value="" style="group" parent="1" vertex="1" connectable="0">
          <mxGeometry x="268" y="29.5" width="191" height="181" as="geometry" />
        </mxCell>
        <mxCell id="GqbEpFNVcH-FoVS1KwiD-151" value="" style="html=1;whiteSpace=wrap;shape=isoCube2;backgroundOutline=1;isoAngle=15;fillColor=#d5e8d4;strokeColor=#82b366;" parent="GqbEpFNVcH-FoVS1KwiD-192" vertex="1">
          <mxGeometry x="81" y="100" width="40" height="40" as="geometry" />
        </mxCell>
        <mxCell id="GqbEpFNVcH-FoVS1KwiD-152" value="" style="html=1;whiteSpace=wrap;shape=isoCube2;backgroundOutline=1;isoAngle=15;fillColor=#d5e8d4;strokeColor=#82b366;" parent="GqbEpFNVcH-FoVS1KwiD-192" vertex="1">
          <mxGeometry x="101" y="110" width="40" height="40" as="geometry" />
        </mxCell>
        <mxCell id="GqbEpFNVcH-FoVS1KwiD-153" value="" style="html=1;whiteSpace=wrap;shape=isoCube2;backgroundOutline=1;isoAngle=15;fillColor=#d5e8d4;strokeColor=#82b366;" parent="GqbEpFNVcH-FoVS1KwiD-192" vertex="1">
          <mxGeometry x="121" y="120" width="40" height="40" as="geometry" />
        </mxCell>
        <mxCell id="GqbEpFNVcH-FoVS1KwiD-154" value="" style="html=1;whiteSpace=wrap;shape=isoCube2;backgroundOutline=1;isoAngle=15;fillColor=#d5e8d4;strokeColor=#82b366;" parent="GqbEpFNVcH-FoVS1KwiD-192" vertex="1">
          <mxGeometry x="201" y="100" width="40" height="40" as="geometry" />
        </mxCell>
        <mxCell id="GqbEpFNVcH-FoVS1KwiD-155" value="" style="html=1;whiteSpace=wrap;shape=isoCube2;backgroundOutline=1;isoAngle=15;fillColor=#d5e8d4;strokeColor=#82b366;" parent="GqbEpFNVcH-FoVS1KwiD-192" vertex="1">
          <mxGeometry x="181" y="110" width="40" height="40" as="geometry" />
        </mxCell>
        <mxCell id="GqbEpFNVcH-FoVS1KwiD-156" value="" style="html=1;whiteSpace=wrap;shape=isoCube2;backgroundOutline=1;isoAngle=15;fillColor=#d5e8d4;strokeColor=#82b366;" parent="GqbEpFNVcH-FoVS1KwiD-192" vertex="1">
          <mxGeometry x="161" y="120" width="40" height="40" as="geometry" />
        </mxCell>
        <mxCell id="GqbEpFNVcH-FoVS1KwiD-157" value="" style="html=1;whiteSpace=wrap;shape=isoCube2;backgroundOutline=1;isoAngle=15;fillColor=#d5e8d4;strokeColor=#82b366;" parent="GqbEpFNVcH-FoVS1KwiD-192" vertex="1">
          <mxGeometry x="141" y="130" width="40" height="40" as="geometry" />
        </mxCell>
        <mxCell id="GqbEpFNVcH-FoVS1KwiD-158" value="" style="html=1;whiteSpace=wrap;shape=isoCube2;backgroundOutline=1;isoAngle=15;fillColor=#f8cecc;strokeColor=#b85450;" parent="GqbEpFNVcH-FoVS1KwiD-192" vertex="1">
          <mxGeometry x="81" y="80" width="40" height="40" as="geometry" />
        </mxCell>
        <mxCell id="GqbEpFNVcH-FoVS1KwiD-159" value="" style="html=1;whiteSpace=wrap;shape=isoCube2;backgroundOutline=1;isoAngle=15;fillColor=#f8cecc;strokeColor=#b85450;" parent="GqbEpFNVcH-FoVS1KwiD-192" vertex="1">
          <mxGeometry x="101" y="90" width="40" height="40" as="geometry" />
        </mxCell>
        <mxCell id="GqbEpFNVcH-FoVS1KwiD-160" value="" style="html=1;whiteSpace=wrap;shape=isoCube2;backgroundOutline=1;isoAngle=15;fillColor=#f8cecc;strokeColor=#b85450;" parent="GqbEpFNVcH-FoVS1KwiD-192" vertex="1">
          <mxGeometry x="121" y="100" width="40" height="40" as="geometry" />
        </mxCell>
        <mxCell id="GqbEpFNVcH-FoVS1KwiD-161" value="" style="html=1;whiteSpace=wrap;shape=isoCube2;backgroundOutline=1;isoAngle=15;fillColor=#f8cecc;strokeColor=#b85450;" parent="GqbEpFNVcH-FoVS1KwiD-192" vertex="1">
          <mxGeometry x="201" y="80" width="40" height="40" as="geometry" />
        </mxCell>
        <mxCell id="GqbEpFNVcH-FoVS1KwiD-162" value="" style="html=1;whiteSpace=wrap;shape=isoCube2;backgroundOutline=1;isoAngle=15;fillColor=#f8cecc;strokeColor=#b85450;" parent="GqbEpFNVcH-FoVS1KwiD-192" vertex="1">
          <mxGeometry x="181" y="90" width="40" height="40" as="geometry" />
        </mxCell>
        <mxCell id="GqbEpFNVcH-FoVS1KwiD-163" value="" style="html=1;whiteSpace=wrap;shape=isoCube2;backgroundOutline=1;isoAngle=15;fillColor=#f8cecc;strokeColor=#b85450;" parent="GqbEpFNVcH-FoVS1KwiD-192" vertex="1">
          <mxGeometry x="161" y="100" width="40" height="40" as="geometry" />
        </mxCell>
        <mxCell id="GqbEpFNVcH-FoVS1KwiD-164" value="" style="html=1;whiteSpace=wrap;shape=isoCube2;backgroundOutline=1;isoAngle=15;fillColor=#f8cecc;strokeColor=#b85450;" parent="GqbEpFNVcH-FoVS1KwiD-192" vertex="1">
          <mxGeometry x="141" y="110" width="40" height="40" as="geometry" />
        </mxCell>
        <mxCell id="GqbEpFNVcH-FoVS1KwiD-165" value="" style="html=1;whiteSpace=wrap;shape=isoCube2;backgroundOutline=1;isoAngle=15;fillColor=#fff2cc;strokeColor=#d6b656;" parent="GqbEpFNVcH-FoVS1KwiD-192" vertex="1">
          <mxGeometry x="81" y="60" width="40" height="40" as="geometry" />
        </mxCell>
        <mxCell id="GqbEpFNVcH-FoVS1KwiD-166" value="" style="html=1;whiteSpace=wrap;shape=isoCube2;backgroundOutline=1;isoAngle=15;fillColor=#fff2cc;strokeColor=#d6b656;" parent="GqbEpFNVcH-FoVS1KwiD-192" vertex="1">
          <mxGeometry x="101" y="70" width="40" height="40" as="geometry" />
        </mxCell>
        <mxCell id="GqbEpFNVcH-FoVS1KwiD-167" value="" style="html=1;whiteSpace=wrap;shape=isoCube2;backgroundOutline=1;isoAngle=15;fillColor=#fff2cc;strokeColor=#d6b656;" parent="GqbEpFNVcH-FoVS1KwiD-192" vertex="1">
          <mxGeometry x="121" y="80" width="40" height="40" as="geometry" />
        </mxCell>
        <mxCell id="GqbEpFNVcH-FoVS1KwiD-168" value="" style="html=1;whiteSpace=wrap;shape=isoCube2;backgroundOutline=1;isoAngle=15;fillColor=#fff2cc;strokeColor=#d6b656;" parent="GqbEpFNVcH-FoVS1KwiD-192" vertex="1">
          <mxGeometry x="201" y="60" width="40" height="40" as="geometry" />
        </mxCell>
        <mxCell id="GqbEpFNVcH-FoVS1KwiD-169" value="" style="html=1;whiteSpace=wrap;shape=isoCube2;backgroundOutline=1;isoAngle=15;fillColor=#fff2cc;strokeColor=#d6b656;" parent="GqbEpFNVcH-FoVS1KwiD-192" vertex="1">
          <mxGeometry x="181" y="70" width="40" height="40" as="geometry" />
        </mxCell>
        <mxCell id="GqbEpFNVcH-FoVS1KwiD-170" value="" style="html=1;whiteSpace=wrap;shape=isoCube2;backgroundOutline=1;isoAngle=15;fillColor=#fff2cc;strokeColor=#d6b656;" parent="GqbEpFNVcH-FoVS1KwiD-192" vertex="1">
          <mxGeometry x="161" y="80" width="40" height="40" as="geometry" />
        </mxCell>
        <mxCell id="GqbEpFNVcH-FoVS1KwiD-171" value="" style="html=1;whiteSpace=wrap;shape=isoCube2;backgroundOutline=1;isoAngle=15;fillColor=#fff2cc;strokeColor=#d6b656;" parent="GqbEpFNVcH-FoVS1KwiD-192" vertex="1">
          <mxGeometry x="141" y="90" width="40" height="40" as="geometry" />
        </mxCell>
        <mxCell id="GqbEpFNVcH-FoVS1KwiD-172" value="" style="html=1;whiteSpace=wrap;shape=isoCube2;backgroundOutline=1;isoAngle=15;fillColor=#dae8fc;strokeColor=#6c8ebf;" parent="GqbEpFNVcH-FoVS1KwiD-192" vertex="1">
          <mxGeometry x="141" y="10" width="40" height="40" as="geometry" />
        </mxCell>
        <mxCell id="GqbEpFNVcH-FoVS1KwiD-173" value="" style="html=1;whiteSpace=wrap;shape=isoCube2;backgroundOutline=1;isoAngle=15;fillColor=#dae8fc;strokeColor=#6c8ebf;" parent="GqbEpFNVcH-FoVS1KwiD-192" vertex="1">
          <mxGeometry x="121" y="20" width="40" height="40" as="geometry" />
        </mxCell>
        <mxCell id="GqbEpFNVcH-FoVS1KwiD-174" value="" style="html=1;whiteSpace=wrap;shape=isoCube2;backgroundOutline=1;isoAngle=15;fillColor=#dae8fc;strokeColor=#6c8ebf;" parent="GqbEpFNVcH-FoVS1KwiD-192" vertex="1">
          <mxGeometry x="101" y="30" width="40" height="40" as="geometry" />
        </mxCell>
        <mxCell id="GqbEpFNVcH-FoVS1KwiD-175" value="" style="html=1;whiteSpace=wrap;shape=isoCube2;backgroundOutline=1;isoAngle=15;fillColor=#dae8fc;strokeColor=#6c8ebf;" parent="GqbEpFNVcH-FoVS1KwiD-192" vertex="1">
          <mxGeometry x="81" y="40" width="40" height="40" as="geometry" />
        </mxCell>
        <mxCell id="GqbEpFNVcH-FoVS1KwiD-176" value="" style="html=1;whiteSpace=wrap;shape=isoCube2;backgroundOutline=1;isoAngle=15;fillColor=#dae8fc;strokeColor=#6c8ebf;" parent="GqbEpFNVcH-FoVS1KwiD-192" vertex="1">
          <mxGeometry x="161" y="20" width="40" height="40" as="geometry" />
        </mxCell>
        <mxCell id="GqbEpFNVcH-FoVS1KwiD-177" value="" style="html=1;whiteSpace=wrap;shape=isoCube2;backgroundOutline=1;isoAngle=15;fillColor=#dae8fc;strokeColor=#6c8ebf;" parent="GqbEpFNVcH-FoVS1KwiD-192" vertex="1">
          <mxGeometry x="141" y="30" width="40" height="40" as="geometry" />
        </mxCell>
        <mxCell id="GqbEpFNVcH-FoVS1KwiD-178" value="" style="html=1;whiteSpace=wrap;shape=isoCube2;backgroundOutline=1;isoAngle=15;fillColor=#dae8fc;strokeColor=#6c8ebf;" parent="GqbEpFNVcH-FoVS1KwiD-192" vertex="1">
          <mxGeometry x="121" y="40" width="40" height="40" as="geometry" />
        </mxCell>
        <mxCell id="GqbEpFNVcH-FoVS1KwiD-179" value="" style="html=1;whiteSpace=wrap;shape=isoCube2;backgroundOutline=1;isoAngle=15;fillColor=#dae8fc;strokeColor=#6c8ebf;" parent="GqbEpFNVcH-FoVS1KwiD-192" vertex="1">
          <mxGeometry x="101" y="50" width="40" height="40" as="geometry" />
        </mxCell>
        <mxCell id="GqbEpFNVcH-FoVS1KwiD-180" value="" style="html=1;whiteSpace=wrap;shape=isoCube2;backgroundOutline=1;isoAngle=15;fillColor=#dae8fc;strokeColor=#6c8ebf;" parent="GqbEpFNVcH-FoVS1KwiD-192" vertex="1">
          <mxGeometry x="181" y="30" width="40" height="40" as="geometry" />
        </mxCell>
        <mxCell id="GqbEpFNVcH-FoVS1KwiD-181" value="" style="html=1;whiteSpace=wrap;shape=isoCube2;backgroundOutline=1;isoAngle=15;fillColor=#dae8fc;strokeColor=#6c8ebf;" parent="GqbEpFNVcH-FoVS1KwiD-192" vertex="1">
          <mxGeometry x="161" y="40" width="40" height="40" as="geometry" />
        </mxCell>
        <mxCell id="GqbEpFNVcH-FoVS1KwiD-182" value="" style="html=1;whiteSpace=wrap;shape=isoCube2;backgroundOutline=1;isoAngle=15;fillColor=#dae8fc;strokeColor=#6c8ebf;" parent="GqbEpFNVcH-FoVS1KwiD-192" vertex="1">
          <mxGeometry x="141" y="50" width="40" height="40" as="geometry" />
        </mxCell>
        <mxCell id="GqbEpFNVcH-FoVS1KwiD-183" value="" style="html=1;whiteSpace=wrap;shape=isoCube2;backgroundOutline=1;isoAngle=15;fillColor=#dae8fc;strokeColor=#6c8ebf;" parent="GqbEpFNVcH-FoVS1KwiD-192" vertex="1">
          <mxGeometry x="121" y="60" width="40" height="40" as="geometry" />
        </mxCell>
        <mxCell id="GqbEpFNVcH-FoVS1KwiD-184" value="" style="html=1;whiteSpace=wrap;shape=isoCube2;backgroundOutline=1;isoAngle=15;fillColor=#dae8fc;strokeColor=#6c8ebf;" parent="GqbEpFNVcH-FoVS1KwiD-192" vertex="1">
          <mxGeometry x="201" y="40" width="40" height="40" as="geometry" />
        </mxCell>
        <mxCell id="GqbEpFNVcH-FoVS1KwiD-185" value="" style="html=1;whiteSpace=wrap;shape=isoCube2;backgroundOutline=1;isoAngle=15;fillColor=#dae8fc;strokeColor=#6c8ebf;" parent="GqbEpFNVcH-FoVS1KwiD-192" vertex="1">
          <mxGeometry x="181" y="50" width="40" height="40" as="geometry" />
        </mxCell>
        <mxCell id="GqbEpFNVcH-FoVS1KwiD-186" value="" style="html=1;whiteSpace=wrap;shape=isoCube2;backgroundOutline=1;isoAngle=15;fillColor=#dae8fc;strokeColor=#6c8ebf;" parent="GqbEpFNVcH-FoVS1KwiD-192" vertex="1">
          <mxGeometry x="161" y="60" width="40" height="40" as="geometry" />
        </mxCell>
        <mxCell id="GqbEpFNVcH-FoVS1KwiD-187" value="" style="html=1;whiteSpace=wrap;shape=isoCube2;backgroundOutline=1;isoAngle=15;fillColor=#dae8fc;strokeColor=#6c8ebf;" parent="GqbEpFNVcH-FoVS1KwiD-192" vertex="1">
          <mxGeometry x="141" y="70" width="40" height="40" as="geometry" />
        </mxCell>
        <mxCell id="GqbEpFNVcH-FoVS1KwiD-188" value="B*H" style="text;html=1;align=center;verticalAlign=middle;whiteSpace=wrap;rounded=0;fontSize=14;fontStyle=1" parent="GqbEpFNVcH-FoVS1KwiD-192" vertex="1">
          <mxGeometry x="50" y="75" width="20" height="30" as="geometry" />
        </mxCell>
        <mxCell id="GqbEpFNVcH-FoVS1KwiD-189" value="T" style="text;html=1;align=center;verticalAlign=middle;whiteSpace=wrap;rounded=0;fontSize=14;fontStyle=1" parent="GqbEpFNVcH-FoVS1KwiD-192" vertex="1">
          <mxGeometry x="103" y="146" width="20" height="30" as="geometry" />
        </mxCell>
        <mxCell id="GqbEpFNVcH-FoVS1KwiD-190" value="E" style="text;html=1;align=center;verticalAlign=middle;whiteSpace=wrap;rounded=0;fontSize=14;fontStyle=1" parent="GqbEpFNVcH-FoVS1KwiD-192" vertex="1">
          <mxGeometry x="101" y="5" width="20" height="30" as="geometry" />
        </mxCell>
        <mxCell id="GqbEpFNVcH-FoVS1KwiD-239" value="" style="shape=flexArrow;endArrow=classic;html=1;rounded=0;endWidth=21.58790170132325;endSize=10.104347826086956;width=32.173913043478265;fillColor=#f5f5f5;strokeColor=#666666;" parent="GqbEpFNVcH-FoVS1KwiD-192" edge="1">
          <mxGeometry width="50" height="50" relative="1" as="geometry">
            <mxPoint x="-43" y="89.13" as="sourcePoint" />
            <mxPoint x="27" y="90.5" as="targetPoint" />
          </mxGeometry>
        </mxCell>
        <mxCell id="GqbEpFNVcH-FoVS1KwiD-240" value="&lt;font style=&quot;font-size: 14px;&quot;&gt;all-to-all&lt;/font&gt;" style="edgeLabel;html=1;align=center;verticalAlign=middle;resizable=0;points=[];fontColor=default;labelBackgroundColor=none;" parent="GqbEpFNVcH-FoVS1KwiD-239" vertex="1" connectable="0">
          <mxGeometry x="-0.2239" y="-1" relative="1" as="geometry">
            <mxPoint x="3" y="-2" as="offset" />
          </mxGeometry>
        </mxCell>
        <mxCell id="GqbEpFNVcH-FoVS1KwiD-193" value="" style="group" parent="1" vertex="1" connectable="0">
          <mxGeometry x="610" y="30" width="190" height="181" as="geometry" />
        </mxCell>
        <mxCell id="GqbEpFNVcH-FoVS1KwiD-194" value="" style="html=1;whiteSpace=wrap;shape=isoCube2;backgroundOutline=1;isoAngle=15;fillColor=#dae8fc;strokeColor=#6c8ebf;" parent="GqbEpFNVcH-FoVS1KwiD-193" vertex="1">
          <mxGeometry x="30" y="100" width="40" height="40" as="geometry" />
        </mxCell>
        <mxCell id="GqbEpFNVcH-FoVS1KwiD-195" value="" style="html=1;whiteSpace=wrap;shape=isoCube2;backgroundOutline=1;isoAngle=15;fillColor=#fff2cc;strokeColor=#d6b656;" parent="GqbEpFNVcH-FoVS1KwiD-193" vertex="1">
          <mxGeometry x="50" y="110" width="40" height="40" as="geometry" />
        </mxCell>
        <mxCell id="GqbEpFNVcH-FoVS1KwiD-196" value="" style="html=1;whiteSpace=wrap;shape=isoCube2;backgroundOutline=1;isoAngle=15;fillColor=#f8cecc;strokeColor=#b85450;" parent="GqbEpFNVcH-FoVS1KwiD-193" vertex="1">
          <mxGeometry x="70" y="120" width="40" height="40" as="geometry" />
        </mxCell>
        <mxCell id="GqbEpFNVcH-FoVS1KwiD-197" value="" style="html=1;whiteSpace=wrap;shape=isoCube2;backgroundOutline=1;isoAngle=15;fillColor=#d5e8d4;strokeColor=#82b366;" parent="GqbEpFNVcH-FoVS1KwiD-193" vertex="1">
          <mxGeometry x="150" y="100" width="40" height="40" as="geometry" />
        </mxCell>
        <mxCell id="GqbEpFNVcH-FoVS1KwiD-198" value="" style="html=1;whiteSpace=wrap;shape=isoCube2;backgroundOutline=1;isoAngle=15;fillColor=#d5e8d4;strokeColor=#82b366;" parent="GqbEpFNVcH-FoVS1KwiD-193" vertex="1">
          <mxGeometry x="130" y="110" width="40" height="40" as="geometry" />
        </mxCell>
        <mxCell id="GqbEpFNVcH-FoVS1KwiD-199" value="" style="html=1;whiteSpace=wrap;shape=isoCube2;backgroundOutline=1;isoAngle=15;fillColor=#d5e8d4;strokeColor=#82b366;" parent="GqbEpFNVcH-FoVS1KwiD-193" vertex="1">
          <mxGeometry x="110" y="120" width="40" height="40" as="geometry" />
        </mxCell>
        <mxCell id="GqbEpFNVcH-FoVS1KwiD-200" value="" style="html=1;whiteSpace=wrap;shape=isoCube2;backgroundOutline=1;isoAngle=15;fillColor=#d5e8d4;strokeColor=#82b366;" parent="GqbEpFNVcH-FoVS1KwiD-193" vertex="1">
          <mxGeometry x="90" y="130" width="40" height="40" as="geometry" />
        </mxCell>
        <mxCell id="GqbEpFNVcH-FoVS1KwiD-201" value="" style="html=1;whiteSpace=wrap;shape=isoCube2;backgroundOutline=1;isoAngle=15;fillColor=#dae8fc;strokeColor=#6c8ebf;" parent="GqbEpFNVcH-FoVS1KwiD-193" vertex="1">
          <mxGeometry x="30" y="80" width="40" height="40" as="geometry" />
        </mxCell>
        <mxCell id="GqbEpFNVcH-FoVS1KwiD-202" value="" style="html=1;whiteSpace=wrap;shape=isoCube2;backgroundOutline=1;isoAngle=15;fillColor=#fff2cc;strokeColor=#d6b656;" parent="GqbEpFNVcH-FoVS1KwiD-193" vertex="1">
          <mxGeometry x="50" y="90" width="40" height="40" as="geometry" />
        </mxCell>
        <mxCell id="GqbEpFNVcH-FoVS1KwiD-203" value="" style="html=1;whiteSpace=wrap;shape=isoCube2;backgroundOutline=1;isoAngle=15;fillColor=#f8cecc;strokeColor=#b85450;" parent="GqbEpFNVcH-FoVS1KwiD-193" vertex="1">
          <mxGeometry x="70" y="100" width="40" height="40" as="geometry" />
        </mxCell>
        <mxCell id="GqbEpFNVcH-FoVS1KwiD-204" value="" style="html=1;whiteSpace=wrap;shape=isoCube2;backgroundOutline=1;isoAngle=15;fillColor=#d5e8d4;strokeColor=#82b366;" parent="GqbEpFNVcH-FoVS1KwiD-193" vertex="1">
          <mxGeometry x="150" y="80" width="40" height="40" as="geometry" />
        </mxCell>
        <mxCell id="GqbEpFNVcH-FoVS1KwiD-205" value="" style="html=1;whiteSpace=wrap;shape=isoCube2;backgroundOutline=1;isoAngle=15;fillColor=#d5e8d4;strokeColor=#82b366;" parent="GqbEpFNVcH-FoVS1KwiD-193" vertex="1">
          <mxGeometry x="130" y="90" width="40" height="40" as="geometry" />
        </mxCell>
        <mxCell id="GqbEpFNVcH-FoVS1KwiD-206" value="" style="html=1;whiteSpace=wrap;shape=isoCube2;backgroundOutline=1;isoAngle=15;fillColor=#d5e8d4;strokeColor=#82b366;" parent="GqbEpFNVcH-FoVS1KwiD-193" vertex="1">
          <mxGeometry x="110" y="100" width="40" height="40" as="geometry" />
        </mxCell>
        <mxCell id="GqbEpFNVcH-FoVS1KwiD-207" value="" style="html=1;whiteSpace=wrap;shape=isoCube2;backgroundOutline=1;isoAngle=15;fillColor=#d5e8d4;strokeColor=#82b366;" parent="GqbEpFNVcH-FoVS1KwiD-193" vertex="1">
          <mxGeometry x="90" y="110" width="40" height="40" as="geometry" />
        </mxCell>
        <mxCell id="GqbEpFNVcH-FoVS1KwiD-208" value="" style="html=1;whiteSpace=wrap;shape=isoCube2;backgroundOutline=1;isoAngle=15;fillColor=#dae8fc;strokeColor=#6c8ebf;" parent="GqbEpFNVcH-FoVS1KwiD-193" vertex="1">
          <mxGeometry x="30" y="60" width="40" height="40" as="geometry" />
        </mxCell>
        <mxCell id="GqbEpFNVcH-FoVS1KwiD-209" value="" style="html=1;whiteSpace=wrap;shape=isoCube2;backgroundOutline=1;isoAngle=15;fillColor=#fff2cc;strokeColor=#d6b656;" parent="GqbEpFNVcH-FoVS1KwiD-193" vertex="1">
          <mxGeometry x="50" y="70" width="40" height="40" as="geometry" />
        </mxCell>
        <mxCell id="GqbEpFNVcH-FoVS1KwiD-210" value="" style="html=1;whiteSpace=wrap;shape=isoCube2;backgroundOutline=1;isoAngle=15;fillColor=#f8cecc;strokeColor=#b85450;" parent="GqbEpFNVcH-FoVS1KwiD-193" vertex="1">
          <mxGeometry x="70" y="80" width="40" height="40" as="geometry" />
        </mxCell>
        <mxCell id="GqbEpFNVcH-FoVS1KwiD-211" value="" style="html=1;whiteSpace=wrap;shape=isoCube2;backgroundOutline=1;isoAngle=15;fillColor=#d5e8d4;strokeColor=#82b366;" parent="GqbEpFNVcH-FoVS1KwiD-193" vertex="1">
          <mxGeometry x="150" y="60" width="40" height="40" as="geometry" />
        </mxCell>
        <mxCell id="GqbEpFNVcH-FoVS1KwiD-212" value="" style="html=1;whiteSpace=wrap;shape=isoCube2;backgroundOutline=1;isoAngle=15;fillColor=#d5e8d4;strokeColor=#82b366;" parent="GqbEpFNVcH-FoVS1KwiD-193" vertex="1">
          <mxGeometry x="130" y="70" width="40" height="40" as="geometry" />
        </mxCell>
        <mxCell id="GqbEpFNVcH-FoVS1KwiD-213" value="" style="html=1;whiteSpace=wrap;shape=isoCube2;backgroundOutline=1;isoAngle=15;fillColor=#d5e8d4;strokeColor=#82b366;" parent="GqbEpFNVcH-FoVS1KwiD-193" vertex="1">
          <mxGeometry x="110" y="80" width="40" height="40" as="geometry" />
        </mxCell>
        <mxCell id="GqbEpFNVcH-FoVS1KwiD-214" value="" style="html=1;whiteSpace=wrap;shape=isoCube2;backgroundOutline=1;isoAngle=15;fillColor=#d5e8d4;strokeColor=#82b366;" parent="GqbEpFNVcH-FoVS1KwiD-193" vertex="1">
          <mxGeometry x="90" y="90" width="40" height="40" as="geometry" />
        </mxCell>
        <mxCell id="GqbEpFNVcH-FoVS1KwiD-215" value="" style="html=1;whiteSpace=wrap;shape=isoCube2;backgroundOutline=1;isoAngle=15;fillColor=#dae8fc;strokeColor=#6c8ebf;" parent="GqbEpFNVcH-FoVS1KwiD-193" vertex="1">
          <mxGeometry x="90" y="10" width="40" height="40" as="geometry" />
        </mxCell>
        <mxCell id="GqbEpFNVcH-FoVS1KwiD-216" value="" style="html=1;whiteSpace=wrap;shape=isoCube2;backgroundOutline=1;isoAngle=15;fillColor=#dae8fc;strokeColor=#6c8ebf;" parent="GqbEpFNVcH-FoVS1KwiD-193" vertex="1">
          <mxGeometry x="70" y="20" width="40" height="40" as="geometry" />
        </mxCell>
        <mxCell id="GqbEpFNVcH-FoVS1KwiD-217" value="" style="html=1;whiteSpace=wrap;shape=isoCube2;backgroundOutline=1;isoAngle=15;fillColor=#dae8fc;strokeColor=#6c8ebf;" parent="GqbEpFNVcH-FoVS1KwiD-193" vertex="1">
          <mxGeometry x="50" y="30" width="40" height="40" as="geometry" />
        </mxCell>
        <mxCell id="GqbEpFNVcH-FoVS1KwiD-218" value="" style="html=1;whiteSpace=wrap;shape=isoCube2;backgroundOutline=1;isoAngle=15;fillColor=#dae8fc;strokeColor=#6c8ebf;" parent="GqbEpFNVcH-FoVS1KwiD-193" vertex="1">
          <mxGeometry x="30" y="40" width="40" height="40" as="geometry" />
        </mxCell>
        <mxCell id="GqbEpFNVcH-FoVS1KwiD-219" value="" style="html=1;whiteSpace=wrap;shape=isoCube2;backgroundOutline=1;isoAngle=15;fillColor=#fff2cc;strokeColor=#d6b656;" parent="GqbEpFNVcH-FoVS1KwiD-193" vertex="1">
          <mxGeometry x="110" y="20" width="40" height="40" as="geometry" />
        </mxCell>
        <mxCell id="GqbEpFNVcH-FoVS1KwiD-220" value="" style="html=1;whiteSpace=wrap;shape=isoCube2;backgroundOutline=1;isoAngle=15;fillColor=#fff2cc;strokeColor=#d6b656;" parent="GqbEpFNVcH-FoVS1KwiD-193" vertex="1">
          <mxGeometry x="90" y="30" width="40" height="40" as="geometry" />
        </mxCell>
        <mxCell id="GqbEpFNVcH-FoVS1KwiD-221" value="" style="html=1;whiteSpace=wrap;shape=isoCube2;backgroundOutline=1;isoAngle=15;fillColor=#fff2cc;strokeColor=#d6b656;" parent="GqbEpFNVcH-FoVS1KwiD-193" vertex="1">
          <mxGeometry x="70" y="40" width="40" height="40" as="geometry" />
        </mxCell>
        <mxCell id="GqbEpFNVcH-FoVS1KwiD-222" value="" style="html=1;whiteSpace=wrap;shape=isoCube2;backgroundOutline=1;isoAngle=15;fillColor=#fff2cc;strokeColor=#d6b656;" parent="GqbEpFNVcH-FoVS1KwiD-193" vertex="1">
          <mxGeometry x="50" y="50" width="40" height="40" as="geometry" />
        </mxCell>
        <mxCell id="GqbEpFNVcH-FoVS1KwiD-223" value="" style="html=1;whiteSpace=wrap;shape=isoCube2;backgroundOutline=1;isoAngle=15;fillColor=#f8cecc;strokeColor=#b85450;" parent="GqbEpFNVcH-FoVS1KwiD-193" vertex="1">
          <mxGeometry x="130" y="30" width="40" height="40" as="geometry" />
        </mxCell>
        <mxCell id="GqbEpFNVcH-FoVS1KwiD-224" value="" style="html=1;whiteSpace=wrap;shape=isoCube2;backgroundOutline=1;isoAngle=15;fillColor=#f8cecc;strokeColor=#b85450;" parent="GqbEpFNVcH-FoVS1KwiD-193" vertex="1">
          <mxGeometry x="110" y="40" width="40" height="40" as="geometry" />
        </mxCell>
        <mxCell id="GqbEpFNVcH-FoVS1KwiD-225" value="" style="html=1;whiteSpace=wrap;shape=isoCube2;backgroundOutline=1;isoAngle=15;fillColor=#f8cecc;strokeColor=#b85450;" parent="GqbEpFNVcH-FoVS1KwiD-193" vertex="1">
          <mxGeometry x="90" y="50" width="40" height="40" as="geometry" />
        </mxCell>
        <mxCell id="GqbEpFNVcH-FoVS1KwiD-226" value="" style="html=1;whiteSpace=wrap;shape=isoCube2;backgroundOutline=1;isoAngle=15;fillColor=#f8cecc;strokeColor=#b85450;" parent="GqbEpFNVcH-FoVS1KwiD-193" vertex="1">
          <mxGeometry x="70" y="60" width="40" height="40" as="geometry" />
        </mxCell>
        <mxCell id="GqbEpFNVcH-FoVS1KwiD-227" value="" style="html=1;whiteSpace=wrap;shape=isoCube2;backgroundOutline=1;isoAngle=15;fillColor=#d5e8d4;strokeColor=#82b366;" parent="GqbEpFNVcH-FoVS1KwiD-193" vertex="1">
          <mxGeometry x="150" y="40" width="40" height="40" as="geometry" />
        </mxCell>
        <mxCell id="GqbEpFNVcH-FoVS1KwiD-228" value="" style="html=1;whiteSpace=wrap;shape=isoCube2;backgroundOutline=1;isoAngle=15;fillColor=#d5e8d4;strokeColor=#82b366;" parent="GqbEpFNVcH-FoVS1KwiD-193" vertex="1">
          <mxGeometry x="130" y="50" width="40" height="40" as="geometry" />
        </mxCell>
        <mxCell id="GqbEpFNVcH-FoVS1KwiD-229" value="" style="html=1;whiteSpace=wrap;shape=isoCube2;backgroundOutline=1;isoAngle=15;fillColor=#d5e8d4;strokeColor=#82b366;" parent="GqbEpFNVcH-FoVS1KwiD-193" vertex="1">
          <mxGeometry x="110" y="60" width="40" height="40" as="geometry" />
        </mxCell>
        <mxCell id="GqbEpFNVcH-FoVS1KwiD-230" value="" style="html=1;whiteSpace=wrap;shape=isoCube2;backgroundOutline=1;isoAngle=15;fillColor=#d5e8d4;strokeColor=#82b366;" parent="GqbEpFNVcH-FoVS1KwiD-193" vertex="1">
          <mxGeometry x="90" y="70" width="40" height="40" as="geometry" />
        </mxCell>
        <mxCell id="GqbEpFNVcH-FoVS1KwiD-231" value="B" style="text;html=1;align=center;verticalAlign=middle;whiteSpace=wrap;rounded=0;fontSize=14;fontStyle=1" parent="GqbEpFNVcH-FoVS1KwiD-193" vertex="1">
          <mxGeometry x="6" y="75" width="20" height="30" as="geometry" />
        </mxCell>
        <mxCell id="GqbEpFNVcH-FoVS1KwiD-232" value="T" style="text;html=1;align=center;verticalAlign=middle;whiteSpace=wrap;rounded=0;fontSize=14;fontStyle=1" parent="GqbEpFNVcH-FoVS1KwiD-193" vertex="1">
          <mxGeometry x="51" y="147" width="20" height="30" as="geometry" />
        </mxCell>
        <mxCell id="GqbEpFNVcH-FoVS1KwiD-233" value="E" style="text;html=1;align=center;verticalAlign=middle;whiteSpace=wrap;rounded=0;fontSize=14;fontStyle=1" parent="GqbEpFNVcH-FoVS1KwiD-193" vertex="1">
          <mxGeometry x="50" y="4" width="20" height="30" as="geometry" />
        </mxCell>
        <mxCell id="GqbEpFNVcH-FoVS1KwiD-234" value="input to multi head attention&lt;div&gt;local shape: B x T/P x E&lt;/div&gt;" style="text;html=1;align=center;verticalAlign=middle;whiteSpace=wrap;rounded=0;" parent="1" vertex="1">
          <mxGeometry x="30" y="225" width="160" height="30" as="geometry" />
        </mxCell>
        <mxCell id="GqbEpFNVcH-FoVS1KwiD-235" value="&lt;div&gt;Attention heads&amp;nbsp;can be computed independently&lt;/div&gt;&lt;div&gt;Local attention shape: B x H/P x T x E&lt;br&gt;&lt;/div&gt;" style="text;html=1;align=center;verticalAlign=middle;whiteSpace=wrap;rounded=0;" parent="1" vertex="1">
          <mxGeometry x="297" y="226" width="267" height="30" as="geometry" />
        </mxCell>
        <mxCell id="GqbEpFNVcH-FoVS1KwiD-242" value="" style="shape=flexArrow;endArrow=classic;html=1;rounded=0;endWidth=21.58790170132325;endSize=10.104347826086956;width=32.173913043478265;fillColor=#f5f5f5;strokeColor=#666666;" parent="1" edge="1">
          <mxGeometry width="50" height="50" relative="1" as="geometry">
            <mxPoint x="532" y="119.31" as="sourcePoint" />
            <mxPoint x="602" y="120.68" as="targetPoint" />
          </mxGeometry>
        </mxCell>
        <mxCell id="GqbEpFNVcH-FoVS1KwiD-243" value="&lt;font style=&quot;font-size: 14px;&quot;&gt;all-to-all&lt;/font&gt;" style="edgeLabel;html=1;align=center;verticalAlign=middle;resizable=0;points=[];fontColor=default;labelBackgroundColor=none;" parent="GqbEpFNVcH-FoVS1KwiD-242" vertex="1" connectable="0">
          <mxGeometry x="-0.2239" y="-1" relative="1" as="geometry">
            <mxPoint x="3" y="-2" as="offset" />
          </mxGeometry>
        </mxCell>
        <mxCell id="GqbEpFNVcH-FoVS1KwiD-287" value="" style="shape=flexArrow;endArrow=classic;html=1;rounded=0;endWidth=26;endSize=12;width=48;fillColor=#f5f5f5;strokeColor=#666666;strokeWidth=2;" parent="1" edge="1">
          <mxGeometry width="50" height="50" relative="1" as="geometry">
            <mxPoint x="241" y="523" as="sourcePoint" />
            <mxPoint x="340" y="523" as="targetPoint" />
          </mxGeometry>
        </mxCell>
        <mxCell id="GqbEpFNVcH-FoVS1KwiD-288" value="&lt;div&gt;&lt;span style=&quot;font-size: 14px;&quot;&gt;start of ring&lt;/span&gt;&lt;/div&gt;&lt;div&gt;&lt;span style=&quot;font-size: 14px;&quot;&gt;attention&lt;/span&gt;&lt;/div&gt;" style="edgeLabel;html=1;align=center;verticalAlign=middle;resizable=0;points=[];fontColor=default;labelBackgroundColor=none;" parent="GqbEpFNVcH-FoVS1KwiD-287" vertex="1" connectable="0">
          <mxGeometry x="-0.2239" y="-1" relative="1" as="geometry">
            <mxPoint x="2" y="-3" as="offset" />
          </mxGeometry>
        </mxCell>
        <mxCell id="GqbEpFNVcH-FoVS1KwiD-332" value="" style="group" parent="1" vertex="1" connectable="0">
          <mxGeometry x="23" y="433" width="190" height="181" as="geometry" />
        </mxCell>
        <mxCell id="GqbEpFNVcH-FoVS1KwiD-333" value="" style="html=1;whiteSpace=wrap;shape=isoCube2;backgroundOutline=1;isoAngle=15;fillColor=#dae8fc;strokeColor=#6c8ebf;" parent="GqbEpFNVcH-FoVS1KwiD-332" vertex="1">
          <mxGeometry x="30" y="100" width="40" height="40" as="geometry" />
        </mxCell>
        <mxCell id="GqbEpFNVcH-FoVS1KwiD-334" value="" style="html=1;whiteSpace=wrap;shape=isoCube2;backgroundOutline=1;isoAngle=15;fillColor=#ffe6cc;strokeColor=#d79b00;" parent="GqbEpFNVcH-FoVS1KwiD-332" vertex="1">
          <mxGeometry x="50" y="110" width="40" height="40" as="geometry" />
        </mxCell>
        <mxCell id="GqbEpFNVcH-FoVS1KwiD-335" value="" style="html=1;whiteSpace=wrap;shape=isoCube2;backgroundOutline=1;isoAngle=15;fillColor=#f8cecc;strokeColor=#b85450;" parent="GqbEpFNVcH-FoVS1KwiD-332" vertex="1">
          <mxGeometry x="70" y="120" width="40" height="40" as="geometry" />
        </mxCell>
        <mxCell id="GqbEpFNVcH-FoVS1KwiD-336" value="" style="html=1;whiteSpace=wrap;shape=isoCube2;backgroundOutline=1;isoAngle=15;fillColor=#d5e8d4;strokeColor=#82b366;" parent="GqbEpFNVcH-FoVS1KwiD-332" vertex="1">
          <mxGeometry x="150" y="100" width="40" height="40" as="geometry" />
        </mxCell>
        <mxCell id="GqbEpFNVcH-FoVS1KwiD-337" value="" style="html=1;whiteSpace=wrap;shape=isoCube2;backgroundOutline=1;isoAngle=15;fillColor=#d5e8d4;strokeColor=#82b366;" parent="GqbEpFNVcH-FoVS1KwiD-332" vertex="1">
          <mxGeometry x="130" y="110" width="40" height="40" as="geometry" />
        </mxCell>
        <mxCell id="GqbEpFNVcH-FoVS1KwiD-338" value="" style="html=1;whiteSpace=wrap;shape=isoCube2;backgroundOutline=1;isoAngle=15;fillColor=#d5e8d4;strokeColor=#82b366;" parent="GqbEpFNVcH-FoVS1KwiD-332" vertex="1">
          <mxGeometry x="110" y="120" width="40" height="40" as="geometry" />
        </mxCell>
        <mxCell id="GqbEpFNVcH-FoVS1KwiD-339" value="" style="html=1;whiteSpace=wrap;shape=isoCube2;backgroundOutline=1;isoAngle=15;fillColor=#d5e8d4;strokeColor=#82b366;" parent="GqbEpFNVcH-FoVS1KwiD-332" vertex="1">
          <mxGeometry x="90" y="130" width="40" height="40" as="geometry" />
        </mxCell>
        <mxCell id="GqbEpFNVcH-FoVS1KwiD-340" value="" style="html=1;whiteSpace=wrap;shape=isoCube2;backgroundOutline=1;isoAngle=15;fillColor=#dae8fc;strokeColor=#6c8ebf;" parent="GqbEpFNVcH-FoVS1KwiD-332" vertex="1">
          <mxGeometry x="30" y="80" width="40" height="40" as="geometry" />
        </mxCell>
        <mxCell id="GqbEpFNVcH-FoVS1KwiD-341" value="" style="html=1;whiteSpace=wrap;shape=isoCube2;backgroundOutline=1;isoAngle=15;fillColor=#ffe6cc;strokeColor=#d79b00;" parent="GqbEpFNVcH-FoVS1KwiD-332" vertex="1">
          <mxGeometry x="50" y="90" width="40" height="40" as="geometry" />
        </mxCell>
        <mxCell id="GqbEpFNVcH-FoVS1KwiD-342" value="" style="html=1;whiteSpace=wrap;shape=isoCube2;backgroundOutline=1;isoAngle=15;fillColor=#f8cecc;strokeColor=#b85450;" parent="GqbEpFNVcH-FoVS1KwiD-332" vertex="1">
          <mxGeometry x="70" y="100" width="40" height="40" as="geometry" />
        </mxCell>
        <mxCell id="GqbEpFNVcH-FoVS1KwiD-343" value="" style="html=1;whiteSpace=wrap;shape=isoCube2;backgroundOutline=1;isoAngle=15;fillColor=#d5e8d4;strokeColor=#82b366;" parent="GqbEpFNVcH-FoVS1KwiD-332" vertex="1">
          <mxGeometry x="150" y="80" width="40" height="40" as="geometry" />
        </mxCell>
        <mxCell id="GqbEpFNVcH-FoVS1KwiD-344" value="" style="html=1;whiteSpace=wrap;shape=isoCube2;backgroundOutline=1;isoAngle=15;fillColor=#d5e8d4;strokeColor=#82b366;" parent="GqbEpFNVcH-FoVS1KwiD-332" vertex="1">
          <mxGeometry x="130" y="90" width="40" height="40" as="geometry" />
        </mxCell>
        <mxCell id="GqbEpFNVcH-FoVS1KwiD-345" value="" style="html=1;whiteSpace=wrap;shape=isoCube2;backgroundOutline=1;isoAngle=15;fillColor=#d5e8d4;strokeColor=#82b366;" parent="GqbEpFNVcH-FoVS1KwiD-332" vertex="1">
          <mxGeometry x="110" y="100" width="40" height="40" as="geometry" />
        </mxCell>
        <mxCell id="GqbEpFNVcH-FoVS1KwiD-346" value="" style="html=1;whiteSpace=wrap;shape=isoCube2;backgroundOutline=1;isoAngle=15;fillColor=#d5e8d4;strokeColor=#82b366;" parent="GqbEpFNVcH-FoVS1KwiD-332" vertex="1">
          <mxGeometry x="90" y="110" width="40" height="40" as="geometry" />
        </mxCell>
        <mxCell id="GqbEpFNVcH-FoVS1KwiD-347" value="" style="html=1;whiteSpace=wrap;shape=isoCube2;backgroundOutline=1;isoAngle=15;fillColor=#dae8fc;strokeColor=#6c8ebf;" parent="GqbEpFNVcH-FoVS1KwiD-332" vertex="1">
          <mxGeometry x="30" y="60" width="40" height="40" as="geometry" />
        </mxCell>
        <mxCell id="GqbEpFNVcH-FoVS1KwiD-348" value="" style="html=1;whiteSpace=wrap;shape=isoCube2;backgroundOutline=1;isoAngle=15;fillColor=#ffe6cc;strokeColor=#d79b00;" parent="GqbEpFNVcH-FoVS1KwiD-332" vertex="1">
          <mxGeometry x="50" y="70" width="40" height="40" as="geometry" />
        </mxCell>
        <mxCell id="GqbEpFNVcH-FoVS1KwiD-349" value="" style="html=1;whiteSpace=wrap;shape=isoCube2;backgroundOutline=1;isoAngle=15;fillColor=#f8cecc;strokeColor=#b85450;" parent="GqbEpFNVcH-FoVS1KwiD-332" vertex="1">
          <mxGeometry x="70" y="80" width="40" height="40" as="geometry" />
        </mxCell>
        <mxCell id="GqbEpFNVcH-FoVS1KwiD-350" value="" style="html=1;whiteSpace=wrap;shape=isoCube2;backgroundOutline=1;isoAngle=15;fillColor=#d5e8d4;strokeColor=#82b366;" parent="GqbEpFNVcH-FoVS1KwiD-332" vertex="1">
          <mxGeometry x="150" y="60" width="40" height="40" as="geometry" />
        </mxCell>
        <mxCell id="GqbEpFNVcH-FoVS1KwiD-351" value="" style="html=1;whiteSpace=wrap;shape=isoCube2;backgroundOutline=1;isoAngle=15;fillColor=#d5e8d4;strokeColor=#82b366;" parent="GqbEpFNVcH-FoVS1KwiD-332" vertex="1">
          <mxGeometry x="130" y="70" width="40" height="40" as="geometry" />
        </mxCell>
        <mxCell id="GqbEpFNVcH-FoVS1KwiD-352" value="" style="html=1;whiteSpace=wrap;shape=isoCube2;backgroundOutline=1;isoAngle=15;fillColor=#d5e8d4;strokeColor=#82b366;" parent="GqbEpFNVcH-FoVS1KwiD-332" vertex="1">
          <mxGeometry x="110" y="80" width="40" height="40" as="geometry" />
        </mxCell>
        <mxCell id="GqbEpFNVcH-FoVS1KwiD-353" value="" style="html=1;whiteSpace=wrap;shape=isoCube2;backgroundOutline=1;isoAngle=15;fillColor=#d5e8d4;strokeColor=#82b366;" parent="GqbEpFNVcH-FoVS1KwiD-332" vertex="1">
          <mxGeometry x="90" y="90" width="40" height="40" as="geometry" />
        </mxCell>
        <mxCell id="GqbEpFNVcH-FoVS1KwiD-354" value="" style="html=1;whiteSpace=wrap;shape=isoCube2;backgroundOutline=1;isoAngle=15;fillColor=#dae8fc;strokeColor=#6c8ebf;" parent="GqbEpFNVcH-FoVS1KwiD-332" vertex="1">
          <mxGeometry x="90" y="10" width="40" height="40" as="geometry" />
        </mxCell>
        <mxCell id="GqbEpFNVcH-FoVS1KwiD-355" value="" style="html=1;whiteSpace=wrap;shape=isoCube2;backgroundOutline=1;isoAngle=15;fillColor=#dae8fc;strokeColor=#6c8ebf;" parent="GqbEpFNVcH-FoVS1KwiD-332" vertex="1">
          <mxGeometry x="70" y="20" width="40" height="40" as="geometry" />
        </mxCell>
        <mxCell id="GqbEpFNVcH-FoVS1KwiD-356" value="" style="html=1;whiteSpace=wrap;shape=isoCube2;backgroundOutline=1;isoAngle=15;fillColor=#dae8fc;strokeColor=#6c8ebf;" parent="GqbEpFNVcH-FoVS1KwiD-332" vertex="1">
          <mxGeometry x="50" y="30" width="40" height="40" as="geometry" />
        </mxCell>
        <mxCell id="GqbEpFNVcH-FoVS1KwiD-357" value="" style="html=1;whiteSpace=wrap;shape=isoCube2;backgroundOutline=1;isoAngle=15;fillColor=#dae8fc;strokeColor=#6c8ebf;" parent="GqbEpFNVcH-FoVS1KwiD-332" vertex="1">
          <mxGeometry x="30" y="40" width="40" height="40" as="geometry" />
        </mxCell>
        <mxCell id="GqbEpFNVcH-FoVS1KwiD-358" value="" style="html=1;whiteSpace=wrap;shape=isoCube2;backgroundOutline=1;isoAngle=15;fillColor=#ffe6cc;strokeColor=#d79b00;" parent="GqbEpFNVcH-FoVS1KwiD-332" vertex="1">
          <mxGeometry x="110" y="20" width="40" height="40" as="geometry" />
        </mxCell>
        <mxCell id="GqbEpFNVcH-FoVS1KwiD-359" value="" style="html=1;whiteSpace=wrap;shape=isoCube2;backgroundOutline=1;isoAngle=15;fillColor=#ffe6cc;strokeColor=#d79b00;" parent="GqbEpFNVcH-FoVS1KwiD-332" vertex="1">
          <mxGeometry x="90" y="30" width="40" height="40" as="geometry" />
        </mxCell>
        <mxCell id="GqbEpFNVcH-FoVS1KwiD-360" value="" style="html=1;whiteSpace=wrap;shape=isoCube2;backgroundOutline=1;isoAngle=15;fillColor=#ffe6cc;strokeColor=#d79b00;" parent="GqbEpFNVcH-FoVS1KwiD-332" vertex="1">
          <mxGeometry x="70" y="40" width="40" height="40" as="geometry" />
        </mxCell>
        <mxCell id="GqbEpFNVcH-FoVS1KwiD-361" value="" style="html=1;whiteSpace=wrap;shape=isoCube2;backgroundOutline=1;isoAngle=15;fillColor=#ffe6cc;strokeColor=#d79b00;" parent="GqbEpFNVcH-FoVS1KwiD-332" vertex="1">
          <mxGeometry x="50" y="50" width="40" height="40" as="geometry" />
        </mxCell>
        <mxCell id="GqbEpFNVcH-FoVS1KwiD-362" value="" style="html=1;whiteSpace=wrap;shape=isoCube2;backgroundOutline=1;isoAngle=15;fillColor=#f8cecc;strokeColor=#b85450;" parent="GqbEpFNVcH-FoVS1KwiD-332" vertex="1">
          <mxGeometry x="130" y="30" width="40" height="40" as="geometry" />
        </mxCell>
        <mxCell id="GqbEpFNVcH-FoVS1KwiD-363" value="" style="html=1;whiteSpace=wrap;shape=isoCube2;backgroundOutline=1;isoAngle=15;fillColor=#f8cecc;strokeColor=#b85450;" parent="GqbEpFNVcH-FoVS1KwiD-332" vertex="1">
          <mxGeometry x="110" y="40" width="40" height="40" as="geometry" />
        </mxCell>
        <mxCell id="GqbEpFNVcH-FoVS1KwiD-364" value="" style="html=1;whiteSpace=wrap;shape=isoCube2;backgroundOutline=1;isoAngle=15;fillColor=#f8cecc;strokeColor=#b85450;" parent="GqbEpFNVcH-FoVS1KwiD-332" vertex="1">
          <mxGeometry x="90" y="50" width="40" height="40" as="geometry" />
        </mxCell>
        <mxCell id="GqbEpFNVcH-FoVS1KwiD-365" value="" style="html=1;whiteSpace=wrap;shape=isoCube2;backgroundOutline=1;isoAngle=15;fillColor=#f8cecc;strokeColor=#b85450;" parent="GqbEpFNVcH-FoVS1KwiD-332" vertex="1">
          <mxGeometry x="70" y="60" width="40" height="40" as="geometry" />
        </mxCell>
        <mxCell id="GqbEpFNVcH-FoVS1KwiD-366" value="" style="html=1;whiteSpace=wrap;shape=isoCube2;backgroundOutline=1;isoAngle=15;fillColor=#d5e8d4;strokeColor=#82b366;" parent="GqbEpFNVcH-FoVS1KwiD-332" vertex="1">
          <mxGeometry x="150" y="40" width="40" height="40" as="geometry" />
        </mxCell>
        <mxCell id="GqbEpFNVcH-FoVS1KwiD-367" value="" style="html=1;whiteSpace=wrap;shape=isoCube2;backgroundOutline=1;isoAngle=15;fillColor=#d5e8d4;strokeColor=#82b366;" parent="GqbEpFNVcH-FoVS1KwiD-332" vertex="1">
          <mxGeometry x="130" y="50" width="40" height="40" as="geometry" />
        </mxCell>
        <mxCell id="GqbEpFNVcH-FoVS1KwiD-368" value="" style="html=1;whiteSpace=wrap;shape=isoCube2;backgroundOutline=1;isoAngle=15;fillColor=#d5e8d4;strokeColor=#82b366;" parent="GqbEpFNVcH-FoVS1KwiD-332" vertex="1">
          <mxGeometry x="110" y="60" width="40" height="40" as="geometry" />
        </mxCell>
        <mxCell id="GqbEpFNVcH-FoVS1KwiD-369" value="" style="html=1;whiteSpace=wrap;shape=isoCube2;backgroundOutline=1;isoAngle=15;fillColor=#d5e8d4;strokeColor=#82b366;" parent="GqbEpFNVcH-FoVS1KwiD-332" vertex="1">
          <mxGeometry x="90" y="70" width="40" height="40" as="geometry" />
        </mxCell>
        <mxCell id="GqbEpFNVcH-FoVS1KwiD-370" value="B" style="text;html=1;align=center;verticalAlign=middle;whiteSpace=wrap;rounded=0;fontSize=14;fontStyle=1" parent="GqbEpFNVcH-FoVS1KwiD-332" vertex="1">
          <mxGeometry x="6" y="75" width="20" height="30" as="geometry" />
        </mxCell>
        <mxCell id="GqbEpFNVcH-FoVS1KwiD-371" value="T" style="text;html=1;align=center;verticalAlign=middle;whiteSpace=wrap;rounded=0;fontSize=14;fontStyle=1" parent="GqbEpFNVcH-FoVS1KwiD-332" vertex="1">
          <mxGeometry x="52" y="147" width="20" height="30" as="geometry" />
        </mxCell>
        <mxCell id="GqbEpFNVcH-FoVS1KwiD-372" value="E" style="text;html=1;align=center;verticalAlign=middle;whiteSpace=wrap;rounded=0;fontSize=14;fontStyle=1" parent="GqbEpFNVcH-FoVS1KwiD-332" vertex="1">
          <mxGeometry x="51" y="5" width="20" height="30" as="geometry" />
        </mxCell>
        <mxCell id="GqbEpFNVcH-FoVS1KwiD-373" value="input to ring attention&lt;div&gt;local shape: B x T/P x E&lt;/div&gt;" style="text;html=1;align=center;verticalAlign=middle;whiteSpace=wrap;rounded=0;" parent="1" vertex="1">
          <mxGeometry x="60" y="620" width="160" height="30" as="geometry" />
        </mxCell>
        <mxCell id="GqbEpFNVcH-FoVS1KwiD-374" value="" style="html=1;whiteSpace=wrap;shape=isoCube2;backgroundOutline=1;isoAngle=15;fillColor=#dae8fc;strokeColor=#6c8ebf;" parent="1" vertex="1">
          <mxGeometry x="507" y="383" width="20" height="20" as="geometry" />
        </mxCell>
        <mxCell id="GqbEpFNVcH-FoVS1KwiD-375" value="" style="html=1;whiteSpace=wrap;shape=isoCube2;backgroundOutline=1;isoAngle=15;fillColor=#dae8fc;strokeColor=#6c8ebf;" parent="1" vertex="1">
          <mxGeometry x="483" y="433" width="20" height="20" as="geometry" />
        </mxCell>
        <mxCell id="GqbEpFNVcH-FoVS1KwiD-376" value="" style="html=1;whiteSpace=wrap;shape=isoCube2;backgroundOutline=1;isoAngle=15;fillColor=#dae8fc;strokeColor=#6c8ebf;" parent="1" vertex="1">
          <mxGeometry x="527" y="433" width="20" height="20" as="geometry" />
        </mxCell>
        <mxCell id="GqbEpFNVcH-FoVS1KwiD-377" value="&lt;div style=&quot;text-align: center;&quot;&gt;&lt;span style=&quot;background-color: initial;&quot;&gt;queries&lt;/span&gt;&lt;/div&gt;" style="text;whiteSpace=wrap;html=1;" parent="1" vertex="1">
          <mxGeometry x="494" y="397" width="29" height="23" as="geometry" />
        </mxCell>
        <mxCell id="GqbEpFNVcH-FoVS1KwiD-378" value="&lt;div style=&quot;text-align: center;&quot;&gt;&lt;span style=&quot;background-color: initial;&quot;&gt;keys&lt;/span&gt;&lt;/div&gt;" style="text;whiteSpace=wrap;html=1;" parent="1" vertex="1">
          <mxGeometry x="478" y="447" width="30" height="20" as="geometry" />
        </mxCell>
        <mxCell id="GqbEpFNVcH-FoVS1KwiD-379" value="&lt;div style=&quot;text-align: center;&quot;&gt;&lt;span style=&quot;background-color: initial;&quot;&gt;values&lt;/span&gt;&lt;/div&gt;" style="text;whiteSpace=wrap;html=1;" parent="1" vertex="1">
          <mxGeometry x="517" y="447" width="30" height="20" as="geometry" />
        </mxCell>
        <mxCell id="GqbEpFNVcH-FoVS1KwiD-381" value="" style="rounded=1;whiteSpace=wrap;html=1;" parent="1" vertex="1">
          <mxGeometry x="399" y="502" width="90" height="47" as="geometry" />
        </mxCell>
        <mxCell id="GqbEpFNVcH-FoVS1KwiD-382" value="" style="html=1;whiteSpace=wrap;shape=isoCube2;backgroundOutline=1;isoAngle=15;fillColor=#d5e8d4;strokeColor=#82b366;" parent="1" vertex="1">
          <mxGeometry x="362" y="508" width="20" height="20" as="geometry" />
        </mxCell>
        <mxCell id="GqbEpFNVcH-FoVS1KwiD-383" value="" style="html=1;whiteSpace=wrap;shape=isoCube2;backgroundOutline=1;isoAngle=15;fillColor=#d5e8d4;strokeColor=#82b366;" parent="1" vertex="1">
          <mxGeometry x="411" y="508" width="20" height="20" as="geometry" />
        </mxCell>
        <mxCell id="GqbEpFNVcH-FoVS1KwiD-384" value="" style="html=1;whiteSpace=wrap;shape=isoCube2;backgroundOutline=1;isoAngle=15;fillColor=#d5e8d4;strokeColor=#82b366;" parent="1" vertex="1">
          <mxGeometry x="455" y="508" width="20" height="20" as="geometry" />
        </mxCell>
        <mxCell id="GqbEpFNVcH-FoVS1KwiD-385" value="&lt;div style=&quot;text-align: center;&quot;&gt;&lt;span style=&quot;background-color: initial;&quot;&gt;queries&lt;/span&gt;&lt;/div&gt;" style="text;whiteSpace=wrap;html=1;" parent="1" vertex="1">
          <mxGeometry x="350" y="522" width="30" height="20" as="geometry" />
        </mxCell>
        <mxCell id="GqbEpFNVcH-FoVS1KwiD-386" value="&lt;div style=&quot;text-align: center;&quot;&gt;&lt;span style=&quot;background-color: initial;&quot;&gt;keys&lt;/span&gt;&lt;/div&gt;" style="text;whiteSpace=wrap;html=1;" parent="1" vertex="1">
          <mxGeometry x="406" y="522" width="30" height="20" as="geometry" />
        </mxCell>
        <mxCell id="GqbEpFNVcH-FoVS1KwiD-387" value="&lt;div style=&quot;text-align: center;&quot;&gt;&lt;span style=&quot;background-color: initial;&quot;&gt;values&lt;/span&gt;&lt;/div&gt;" style="text;whiteSpace=wrap;html=1;" parent="1" vertex="1">
          <mxGeometry x="445" y="522" width="30" height="20" as="geometry" />
        </mxCell>
        <mxCell id="GqbEpFNVcH-FoVS1KwiD-388" value="" style="rounded=1;whiteSpace=wrap;html=1;" parent="1" vertex="1">
          <mxGeometry x="542" y="501" width="90" height="47" as="geometry" />
        </mxCell>
        <mxCell id="GqbEpFNVcH-FoVS1KwiD-389" value="" style="html=1;whiteSpace=wrap;shape=isoCube2;backgroundOutline=1;isoAngle=15;fillColor=#fff2cc;strokeColor=#d6b656;" parent="1" vertex="1">
          <mxGeometry x="649" y="507" width="20" height="20" as="geometry" />
        </mxCell>
        <mxCell id="GqbEpFNVcH-FoVS1KwiD-390" value="" style="html=1;whiteSpace=wrap;shape=isoCube2;backgroundOutline=1;isoAngle=15;fillColor=#fff2cc;strokeColor=#d6b656;" parent="1" vertex="1">
          <mxGeometry x="554" y="507" width="20" height="20" as="geometry" />
        </mxCell>
        <mxCell id="GqbEpFNVcH-FoVS1KwiD-391" value="" style="html=1;whiteSpace=wrap;shape=isoCube2;backgroundOutline=1;isoAngle=15;fillColor=#fff2cc;strokeColor=#d6b656;" parent="1" vertex="1">
          <mxGeometry x="598" y="507" width="20" height="20" as="geometry" />
        </mxCell>
        <mxCell id="GqbEpFNVcH-FoVS1KwiD-392" value="&lt;div style=&quot;text-align: center;&quot;&gt;&lt;span style=&quot;background-color: initial;&quot;&gt;queries&lt;/span&gt;&lt;/div&gt;" style="text;whiteSpace=wrap;html=1;" parent="1" vertex="1">
          <mxGeometry x="638" y="521" width="30" height="20" as="geometry" />
        </mxCell>
        <mxCell id="GqbEpFNVcH-FoVS1KwiD-393" value="&lt;div style=&quot;text-align: center;&quot;&gt;&lt;span style=&quot;background-color: initial;&quot;&gt;keys&lt;/span&gt;&lt;/div&gt;" style="text;whiteSpace=wrap;html=1;" parent="1" vertex="1">
          <mxGeometry x="549" y="521" width="30" height="20" as="geometry" />
        </mxCell>
        <mxCell id="GqbEpFNVcH-FoVS1KwiD-394" value="&lt;div style=&quot;text-align: center;&quot;&gt;&lt;span style=&quot;background-color: initial;&quot;&gt;values&lt;/span&gt;&lt;/div&gt;" style="text;whiteSpace=wrap;html=1;" parent="1" vertex="1">
          <mxGeometry x="588" y="521" width="30" height="20" as="geometry" />
        </mxCell>
        <mxCell id="GqbEpFNVcH-FoVS1KwiD-396" value="" style="rounded=1;whiteSpace=wrap;html=1;" parent="1" vertex="1">
          <mxGeometry x="472" y="573" width="90" height="47" as="geometry" />
        </mxCell>
        <mxCell id="GqbEpFNVcH-FoVS1KwiD-397" value="" style="html=1;whiteSpace=wrap;shape=isoCube2;backgroundOutline=1;isoAngle=15;fillColor=#f8cecc;strokeColor=#b85450;" parent="1" vertex="1">
          <mxGeometry x="508.5" y="627" width="20" height="20" as="geometry" />
        </mxCell>
        <mxCell id="GqbEpFNVcH-FoVS1KwiD-398" value="" style="html=1;whiteSpace=wrap;shape=isoCube2;backgroundOutline=1;isoAngle=15;fillColor=#f8cecc;strokeColor=#b85450;" parent="1" vertex="1">
          <mxGeometry x="484" y="579" width="20" height="20" as="geometry" />
        </mxCell>
        <mxCell id="GqbEpFNVcH-FoVS1KwiD-399" value="" style="html=1;whiteSpace=wrap;shape=isoCube2;backgroundOutline=1;isoAngle=15;fillColor=#f8cecc;strokeColor=#b85450;" parent="1" vertex="1">
          <mxGeometry x="528" y="579" width="20" height="20" as="geometry" />
        </mxCell>
        <mxCell id="GqbEpFNVcH-FoVS1KwiD-400" value="&lt;div style=&quot;text-align: center;&quot;&gt;&lt;span style=&quot;background-color: initial;&quot;&gt;queries&lt;/span&gt;&lt;/div&gt;" style="text;whiteSpace=wrap;html=1;" parent="1" vertex="1">
          <mxGeometry x="495.5" y="641" width="29" height="23" as="geometry" />
        </mxCell>
        <mxCell id="GqbEpFNVcH-FoVS1KwiD-401" value="&lt;div style=&quot;text-align: center;&quot;&gt;&lt;span style=&quot;background-color: initial;&quot;&gt;keys&lt;/span&gt;&lt;/div&gt;" style="text;whiteSpace=wrap;html=1;" parent="1" vertex="1">
          <mxGeometry x="479" y="593" width="30" height="20" as="geometry" />
        </mxCell>
        <mxCell id="GqbEpFNVcH-FoVS1KwiD-402" value="&lt;div style=&quot;text-align: center;&quot;&gt;&lt;span style=&quot;background-color: initial;&quot;&gt;values&lt;/span&gt;&lt;/div&gt;" style="text;whiteSpace=wrap;html=1;" parent="1" vertex="1">
          <mxGeometry x="518" y="593" width="30" height="20" as="geometry" />
        </mxCell>
        <mxCell id="GqbEpFNVcH-FoVS1KwiD-405" value="" style="html=1;shadow=0;dashed=0;align=center;verticalAlign=middle;shape=mxgraph.arrows2.bendArrow;dy=3.49;dx=18.06;notch=0;arrowHead=15.59;rounded=1;fillColor=#f5f5f5;fontColor=#333333;strokeColor=#666666;" parent="1" vertex="1">
          <mxGeometry x="418.5" y="444" width="45" height="50" as="geometry" />
        </mxCell>
        <mxCell id="GqbEpFNVcH-FoVS1KwiD-409" value="" style="html=1;shadow=0;dashed=0;align=center;verticalAlign=middle;shape=mxgraph.arrows2.bendArrow;dy=3.58;dx=16.47;notch=0;arrowHead=17.6;rounded=1;fillColor=#f5f5f5;fontColor=#333333;strokeColor=#666666;rotation=-90;" parent="1" vertex="1">
          <mxGeometry x="417" y="554" width="45" height="50" as="geometry" />
        </mxCell>
        <mxCell id="GqbEpFNVcH-FoVS1KwiD-410" value="" style="html=1;shadow=0;dashed=0;align=center;verticalAlign=middle;shape=mxgraph.arrows2.bendArrow;dy=3.49;dx=18.06;notch=0;arrowHead=15.59;rounded=1;fillColor=#f5f5f5;fontColor=#333333;strokeColor=#666666;rotation=90;" parent="1" vertex="1">
          <mxGeometry x="569" y="447" width="45" height="50" as="geometry" />
        </mxCell>
        <mxCell id="GqbEpFNVcH-FoVS1KwiD-411" value="" style="html=1;shadow=0;dashed=0;align=center;verticalAlign=middle;shape=mxgraph.arrows2.bendArrow;dy=3.49;dx=18.06;notch=0;arrowHead=15.59;rounded=1;fillColor=#f5f5f5;fontColor=#333333;strokeColor=#666666;rotation=-180;" parent="1" vertex="1">
          <mxGeometry x="569" y="556" width="45" height="50" as="geometry" />
        </mxCell>
        <mxCell id="GqbEpFNVcH-FoVS1KwiD-432" value="&lt;div&gt;&lt;br/&gt;&lt;/div&gt;" style="rounded=1;whiteSpace=wrap;html=1;" parent="1" vertex="1">
          <mxGeometry x="912" y="427" width="90" height="47" as="geometry" />
        </mxCell>
        <mxCell id="GqbEpFNVcH-FoVS1KwiD-433" value="" style="html=1;whiteSpace=wrap;shape=isoCube2;backgroundOutline=1;isoAngle=15;fillColor=#dae8fc;strokeColor=#6c8ebf;" parent="1" vertex="1">
          <mxGeometry x="948" y="383" width="20" height="20" as="geometry" />
        </mxCell>
        <mxCell id="GqbEpFNVcH-FoVS1KwiD-434" value="" style="html=1;whiteSpace=wrap;shape=isoCube2;backgroundOutline=1;isoAngle=15;fillColor=#d5e8d4;strokeColor=#82b366;" parent="1" vertex="1">
          <mxGeometry x="924" y="433" width="20" height="20" as="geometry" />
        </mxCell>
        <mxCell id="GqbEpFNVcH-FoVS1KwiD-435" value="" style="html=1;whiteSpace=wrap;shape=isoCube2;backgroundOutline=1;isoAngle=15;fillColor=#d5e8d4;strokeColor=#82b366;" parent="1" vertex="1">
          <mxGeometry x="968" y="433" width="20" height="20" as="geometry" />
        </mxCell>
        <mxCell id="GqbEpFNVcH-FoVS1KwiD-436" value="&lt;div style=&quot;text-align: center;&quot;&gt;&lt;span style=&quot;background-color: initial;&quot;&gt;queries&lt;/span&gt;&lt;/div&gt;" style="text;whiteSpace=wrap;html=1;" parent="1" vertex="1">
          <mxGeometry x="935" y="397" width="29" height="23" as="geometry" />
        </mxCell>
        <mxCell id="GqbEpFNVcH-FoVS1KwiD-437" value="&lt;div style=&quot;text-align: center;&quot;&gt;&lt;span style=&quot;background-color: initial;&quot;&gt;keys&lt;/span&gt;&lt;/div&gt;" style="text;whiteSpace=wrap;html=1;" parent="1" vertex="1">
          <mxGeometry x="919" y="447" width="30" height="20" as="geometry" />
        </mxCell>
        <mxCell id="GqbEpFNVcH-FoVS1KwiD-438" value="&lt;div style=&quot;text-align: center;&quot;&gt;&lt;span style=&quot;background-color: initial;&quot;&gt;values&lt;/span&gt;&lt;/div&gt;" style="text;whiteSpace=wrap;html=1;" parent="1" vertex="1">
          <mxGeometry x="958" y="447" width="30" height="20" as="geometry" />
        </mxCell>
        <mxCell id="GqbEpFNVcH-FoVS1KwiD-439" value="" style="rounded=1;whiteSpace=wrap;html=1;" parent="1" vertex="1">
          <mxGeometry x="840" y="502" width="90" height="47" as="geometry" />
        </mxCell>
        <mxCell id="GqbEpFNVcH-FoVS1KwiD-440" value="" style="html=1;whiteSpace=wrap;shape=isoCube2;backgroundOutline=1;isoAngle=15;fillColor=#d5e8d4;strokeColor=#82b366;" parent="1" vertex="1">
          <mxGeometry x="803" y="508" width="20" height="20" as="geometry" />
        </mxCell>
        <mxCell id="GqbEpFNVcH-FoVS1KwiD-441" value="" style="html=1;whiteSpace=wrap;shape=isoCube2;backgroundOutline=1;isoAngle=15;fillColor=#f8cecc;strokeColor=#b85450;" parent="1" vertex="1">
          <mxGeometry x="852" y="508" width="20" height="20" as="geometry" />
        </mxCell>
        <mxCell id="GqbEpFNVcH-FoVS1KwiD-442" value="" style="html=1;whiteSpace=wrap;shape=isoCube2;backgroundOutline=1;isoAngle=15;fillColor=#f8cecc;strokeColor=#b85450;" parent="1" vertex="1">
          <mxGeometry x="896" y="508" width="20" height="20" as="geometry" />
        </mxCell>
        <mxCell id="GqbEpFNVcH-FoVS1KwiD-443" value="&lt;div style=&quot;text-align: center;&quot;&gt;&lt;span style=&quot;background-color: initial;&quot;&gt;queries&lt;/span&gt;&lt;/div&gt;" style="text;whiteSpace=wrap;html=1;" parent="1" vertex="1">
          <mxGeometry x="791" y="522" width="30" height="20" as="geometry" />
        </mxCell>
        <mxCell id="GqbEpFNVcH-FoVS1KwiD-444" value="&lt;div style=&quot;text-align: center;&quot;&gt;&lt;span style=&quot;background-color: initial;&quot;&gt;keys&lt;/span&gt;&lt;/div&gt;" style="text;whiteSpace=wrap;html=1;" parent="1" vertex="1">
          <mxGeometry x="847" y="522" width="30" height="20" as="geometry" />
        </mxCell>
        <mxCell id="GqbEpFNVcH-FoVS1KwiD-445" value="&lt;div style=&quot;text-align: center;&quot;&gt;&lt;span style=&quot;background-color: initial;&quot;&gt;values&lt;/span&gt;&lt;/div&gt;" style="text;whiteSpace=wrap;html=1;" parent="1" vertex="1">
          <mxGeometry x="886" y="522" width="30" height="20" as="geometry" />
        </mxCell>
        <mxCell id="GqbEpFNVcH-FoVS1KwiD-446" value="" style="rounded=1;whiteSpace=wrap;html=1;" parent="1" vertex="1">
          <mxGeometry x="983" y="501" width="90" height="47" as="geometry" />
        </mxCell>
        <mxCell id="GqbEpFNVcH-FoVS1KwiD-447" value="" style="html=1;whiteSpace=wrap;shape=isoCube2;backgroundOutline=1;isoAngle=15;fillColor=#fff2cc;strokeColor=#d6b656;" parent="1" vertex="1">
          <mxGeometry x="1090" y="507" width="20" height="20" as="geometry" />
        </mxCell>
        <mxCell id="GqbEpFNVcH-FoVS1KwiD-448" value="" style="html=1;whiteSpace=wrap;shape=isoCube2;backgroundOutline=1;isoAngle=15;fillColor=#dae8fc;strokeColor=#6c8ebf;" parent="1" vertex="1">
          <mxGeometry x="995" y="507" width="20" height="20" as="geometry" />
        </mxCell>
        <mxCell id="GqbEpFNVcH-FoVS1KwiD-449" value="" style="html=1;whiteSpace=wrap;shape=isoCube2;backgroundOutline=1;isoAngle=15;fillColor=#dae8fc;strokeColor=#6c8ebf;" parent="1" vertex="1">
          <mxGeometry x="1039" y="507" width="20" height="20" as="geometry" />
        </mxCell>
        <mxCell id="GqbEpFNVcH-FoVS1KwiD-450" value="&lt;div style=&quot;text-align: center;&quot;&gt;&lt;span style=&quot;background-color: initial;&quot;&gt;queries&lt;/span&gt;&lt;/div&gt;" style="text;whiteSpace=wrap;html=1;" parent="1" vertex="1">
          <mxGeometry x="1079" y="521" width="30" height="20" as="geometry" />
        </mxCell>
        <mxCell id="GqbEpFNVcH-FoVS1KwiD-451" value="&lt;div style=&quot;text-align: center;&quot;&gt;&lt;span style=&quot;background-color: initial;&quot;&gt;keys&lt;/span&gt;&lt;/div&gt;" style="text;whiteSpace=wrap;html=1;" parent="1" vertex="1">
          <mxGeometry x="990" y="521" width="30" height="20" as="geometry" />
        </mxCell>
        <mxCell id="GqbEpFNVcH-FoVS1KwiD-452" value="&lt;div style=&quot;text-align: center;&quot;&gt;&lt;span style=&quot;background-color: initial;&quot;&gt;values&lt;/span&gt;&lt;/div&gt;" style="text;whiteSpace=wrap;html=1;" parent="1" vertex="1">
          <mxGeometry x="1029" y="521" width="30" height="20" as="geometry" />
        </mxCell>
        <mxCell id="GqbEpFNVcH-FoVS1KwiD-453" value="" style="rounded=1;whiteSpace=wrap;html=1;" parent="1" vertex="1">
          <mxGeometry x="913" y="573" width="90" height="47" as="geometry" />
        </mxCell>
        <mxCell id="GqbEpFNVcH-FoVS1KwiD-454" value="" style="html=1;whiteSpace=wrap;shape=isoCube2;backgroundOutline=1;isoAngle=15;fillColor=#f8cecc;strokeColor=#b85450;" parent="1" vertex="1">
          <mxGeometry x="949.5" y="627" width="20" height="20" as="geometry" />
        </mxCell>
        <mxCell id="GqbEpFNVcH-FoVS1KwiD-455" value="" style="html=1;whiteSpace=wrap;shape=isoCube2;backgroundOutline=1;isoAngle=15;fillColor=#fff2cc;strokeColor=#d6b656;" parent="1" vertex="1">
          <mxGeometry x="925" y="579" width="20" height="20" as="geometry" />
        </mxCell>
        <mxCell id="GqbEpFNVcH-FoVS1KwiD-456" value="" style="html=1;whiteSpace=wrap;shape=isoCube2;backgroundOutline=1;isoAngle=15;fillColor=#fff2cc;strokeColor=#d6b656;" parent="1" vertex="1">
          <mxGeometry x="969" y="579" width="20" height="20" as="geometry" />
        </mxCell>
        <mxCell id="GqbEpFNVcH-FoVS1KwiD-457" value="&lt;div style=&quot;text-align: center;&quot;&gt;&lt;span style=&quot;background-color: initial;&quot;&gt;queries&lt;/span&gt;&lt;/div&gt;" style="text;whiteSpace=wrap;html=1;" parent="1" vertex="1">
          <mxGeometry x="936.5" y="641" width="29" height="23" as="geometry" />
        </mxCell>
        <mxCell id="GqbEpFNVcH-FoVS1KwiD-458" value="&lt;div style=&quot;text-align: center;&quot;&gt;&lt;span style=&quot;background-color: initial;&quot;&gt;keys&lt;/span&gt;&lt;/div&gt;" style="text;whiteSpace=wrap;html=1;" parent="1" vertex="1">
          <mxGeometry x="920" y="593" width="30" height="20" as="geometry" />
        </mxCell>
        <mxCell id="GqbEpFNVcH-FoVS1KwiD-459" value="&lt;div style=&quot;text-align: center;&quot;&gt;&lt;span style=&quot;background-color: initial;&quot;&gt;values&lt;/span&gt;&lt;/div&gt;" style="text;whiteSpace=wrap;html=1;" parent="1" vertex="1">
          <mxGeometry x="959" y="593" width="30" height="20" as="geometry" />
        </mxCell>
        <mxCell id="GqbEpFNVcH-FoVS1KwiD-460" value="" style="html=1;shadow=0;dashed=0;align=center;verticalAlign=middle;shape=mxgraph.arrows2.bendArrow;dy=3.49;dx=18.06;notch=0;arrowHead=15.59;rounded=1;fillColor=#f5f5f5;fontColor=#333333;strokeColor=#666666;" parent="1" vertex="1">
          <mxGeometry x="859.5" y="444" width="45" height="50" as="geometry" />
        </mxCell>
        <mxCell id="GqbEpFNVcH-FoVS1KwiD-461" value="" style="html=1;shadow=0;dashed=0;align=center;verticalAlign=middle;shape=mxgraph.arrows2.bendArrow;dy=3.58;dx=16.47;notch=0;arrowHead=17.6;rounded=1;fillColor=#f5f5f5;fontColor=#333333;strokeColor=#666666;rotation=-90;" parent="1" vertex="1">
          <mxGeometry x="858" y="554" width="45" height="50" as="geometry" />
        </mxCell>
        <mxCell id="GqbEpFNVcH-FoVS1KwiD-462" value="" style="html=1;shadow=0;dashed=0;align=center;verticalAlign=middle;shape=mxgraph.arrows2.bendArrow;dy=3.49;dx=18.06;notch=0;arrowHead=15.59;rounded=1;fillColor=#f5f5f5;fontColor=#333333;strokeColor=#666666;rotation=90;" parent="1" vertex="1">
          <mxGeometry x="1010" y="447" width="45" height="50" as="geometry" />
        </mxCell>
        <mxCell id="GqbEpFNVcH-FoVS1KwiD-463" value="" style="html=1;shadow=0;dashed=0;align=center;verticalAlign=middle;shape=mxgraph.arrows2.bendArrow;dy=3.49;dx=18.06;notch=0;arrowHead=15.59;rounded=1;fillColor=#f5f5f5;fontColor=#333333;strokeColor=#666666;rotation=-180;" parent="1" vertex="1">
          <mxGeometry x="1010" y="556" width="45" height="50" as="geometry" />
        </mxCell>
        <mxCell id="GqbEpFNVcH-FoVS1KwiD-509" value="" style="shape=flexArrow;endArrow=classic;html=1;rounded=0;endWidth=26;endSize=12;width=48;fillColor=#f5f5f5;strokeColor=#666666;strokeWidth=2;" parent="1" edge="1">
          <mxGeometry width="50" height="50" relative="1" as="geometry">
            <mxPoint x="703" y="523" as="sourcePoint" />
            <mxPoint x="771" y="524" as="targetPoint" />
          </mxGeometry>
        </mxCell>
        <mxCell id="GqbEpFNVcH-FoVS1KwiD-520" value="&#xa;" style="group" parent="1" vertex="1" connectable="0">
          <mxGeometry x="25" y="800.5" width="190" height="181" as="geometry" />
        </mxCell>
        <mxCell id="GqbEpFNVcH-FoVS1KwiD-521" value="" style="html=1;whiteSpace=wrap;shape=isoCube2;backgroundOutline=1;isoAngle=15;fillColor=#dae8fc;strokeColor=#6c8ebf;" parent="GqbEpFNVcH-FoVS1KwiD-520" vertex="1">
          <mxGeometry x="30" y="100" width="40" height="40" as="geometry" />
        </mxCell>
        <mxCell id="GqbEpFNVcH-FoVS1KwiD-522" value="" style="html=1;whiteSpace=wrap;shape=isoCube2;backgroundOutline=1;isoAngle=15;fillColor=#fff2cc;strokeColor=#d6b656;" parent="GqbEpFNVcH-FoVS1KwiD-520" vertex="1">
          <mxGeometry x="50" y="110" width="40" height="40" as="geometry" />
        </mxCell>
        <mxCell id="GqbEpFNVcH-FoVS1KwiD-523" value="" style="html=1;whiteSpace=wrap;shape=isoCube2;backgroundOutline=1;isoAngle=15;fillColor=#f8cecc;strokeColor=#b85450;" parent="GqbEpFNVcH-FoVS1KwiD-520" vertex="1">
          <mxGeometry x="70" y="120" width="40" height="40" as="geometry" />
        </mxCell>
        <mxCell id="GqbEpFNVcH-FoVS1KwiD-524" value="" style="html=1;whiteSpace=wrap;shape=isoCube2;backgroundOutline=1;isoAngle=15;fillColor=#d5e8d4;strokeColor=#82b366;" parent="GqbEpFNVcH-FoVS1KwiD-520" vertex="1">
          <mxGeometry x="150" y="100" width="40" height="40" as="geometry" />
        </mxCell>
        <mxCell id="GqbEpFNVcH-FoVS1KwiD-525" value="" style="html=1;whiteSpace=wrap;shape=isoCube2;backgroundOutline=1;isoAngle=15;fillColor=#d5e8d4;strokeColor=#82b366;" parent="GqbEpFNVcH-FoVS1KwiD-520" vertex="1">
          <mxGeometry x="130" y="110" width="40" height="40" as="geometry" />
        </mxCell>
        <mxCell id="GqbEpFNVcH-FoVS1KwiD-526" value="" style="html=1;whiteSpace=wrap;shape=isoCube2;backgroundOutline=1;isoAngle=15;fillColor=#d5e8d4;strokeColor=#82b366;" parent="GqbEpFNVcH-FoVS1KwiD-520" vertex="1">
          <mxGeometry x="110" y="120" width="40" height="40" as="geometry" />
        </mxCell>
        <mxCell id="GqbEpFNVcH-FoVS1KwiD-527" value="" style="html=1;whiteSpace=wrap;shape=isoCube2;backgroundOutline=1;isoAngle=15;fillColor=#d5e8d4;strokeColor=#82b366;" parent="GqbEpFNVcH-FoVS1KwiD-520" vertex="1">
          <mxGeometry x="90" y="130" width="40" height="40" as="geometry" />
        </mxCell>
        <mxCell id="GqbEpFNVcH-FoVS1KwiD-528" value="" style="html=1;whiteSpace=wrap;shape=isoCube2;backgroundOutline=1;isoAngle=15;fillColor=#dae8fc;strokeColor=#6c8ebf;" parent="GqbEpFNVcH-FoVS1KwiD-520" vertex="1">
          <mxGeometry x="30" y="80" width="40" height="40" as="geometry" />
        </mxCell>
        <mxCell id="GqbEpFNVcH-FoVS1KwiD-529" value="" style="html=1;whiteSpace=wrap;shape=isoCube2;backgroundOutline=1;isoAngle=15;fillColor=#fff2cc;strokeColor=#d6b656;" parent="GqbEpFNVcH-FoVS1KwiD-520" vertex="1">
          <mxGeometry x="50" y="90" width="40" height="40" as="geometry" />
        </mxCell>
        <mxCell id="GqbEpFNVcH-FoVS1KwiD-530" value="" style="html=1;whiteSpace=wrap;shape=isoCube2;backgroundOutline=1;isoAngle=15;fillColor=#f8cecc;strokeColor=#b85450;" parent="GqbEpFNVcH-FoVS1KwiD-520" vertex="1">
          <mxGeometry x="70" y="100" width="40" height="40" as="geometry" />
        </mxCell>
        <mxCell id="GqbEpFNVcH-FoVS1KwiD-531" value="" style="html=1;whiteSpace=wrap;shape=isoCube2;backgroundOutline=1;isoAngle=15;fillColor=#d5e8d4;strokeColor=#82b366;" parent="GqbEpFNVcH-FoVS1KwiD-520" vertex="1">
          <mxGeometry x="150" y="80" width="40" height="40" as="geometry" />
        </mxCell>
        <mxCell id="GqbEpFNVcH-FoVS1KwiD-532" value="" style="html=1;whiteSpace=wrap;shape=isoCube2;backgroundOutline=1;isoAngle=15;fillColor=#d5e8d4;strokeColor=#82b366;" parent="GqbEpFNVcH-FoVS1KwiD-520" vertex="1">
          <mxGeometry x="130" y="90" width="40" height="40" as="geometry" />
        </mxCell>
        <mxCell id="GqbEpFNVcH-FoVS1KwiD-533" value="" style="html=1;whiteSpace=wrap;shape=isoCube2;backgroundOutline=1;isoAngle=15;fillColor=#d5e8d4;strokeColor=#82b366;" parent="GqbEpFNVcH-FoVS1KwiD-520" vertex="1">
          <mxGeometry x="110" y="100" width="40" height="40" as="geometry" />
        </mxCell>
        <mxCell id="GqbEpFNVcH-FoVS1KwiD-534" value="" style="html=1;whiteSpace=wrap;shape=isoCube2;backgroundOutline=1;isoAngle=15;fillColor=#d5e8d4;strokeColor=#82b366;" parent="GqbEpFNVcH-FoVS1KwiD-520" vertex="1">
          <mxGeometry x="90" y="110" width="40" height="40" as="geometry" />
        </mxCell>
        <mxCell id="GqbEpFNVcH-FoVS1KwiD-535" value="" style="html=1;whiteSpace=wrap;shape=isoCube2;backgroundOutline=1;isoAngle=15;fillColor=#dae8fc;strokeColor=#6c8ebf;" parent="GqbEpFNVcH-FoVS1KwiD-520" vertex="1">
          <mxGeometry x="30" y="60" width="40" height="40" as="geometry" />
        </mxCell>
        <mxCell id="GqbEpFNVcH-FoVS1KwiD-536" value="" style="html=1;whiteSpace=wrap;shape=isoCube2;backgroundOutline=1;isoAngle=15;fillColor=#fff2cc;strokeColor=#d6b656;" parent="GqbEpFNVcH-FoVS1KwiD-520" vertex="1">
          <mxGeometry x="50" y="70" width="40" height="40" as="geometry" />
        </mxCell>
        <mxCell id="GqbEpFNVcH-FoVS1KwiD-537" value="" style="html=1;whiteSpace=wrap;shape=isoCube2;backgroundOutline=1;isoAngle=15;fillColor=#f8cecc;strokeColor=#b85450;" parent="GqbEpFNVcH-FoVS1KwiD-520" vertex="1">
          <mxGeometry x="70" y="80" width="40" height="40" as="geometry" />
        </mxCell>
        <mxCell id="GqbEpFNVcH-FoVS1KwiD-538" value="" style="html=1;whiteSpace=wrap;shape=isoCube2;backgroundOutline=1;isoAngle=15;fillColor=#d5e8d4;strokeColor=#82b366;" parent="GqbEpFNVcH-FoVS1KwiD-520" vertex="1">
          <mxGeometry x="150" y="60" width="40" height="40" as="geometry" />
        </mxCell>
        <mxCell id="GqbEpFNVcH-FoVS1KwiD-539" value="" style="html=1;whiteSpace=wrap;shape=isoCube2;backgroundOutline=1;isoAngle=15;fillColor=#d5e8d4;strokeColor=#82b366;" parent="GqbEpFNVcH-FoVS1KwiD-520" vertex="1">
          <mxGeometry x="130" y="70" width="40" height="40" as="geometry" />
        </mxCell>
        <mxCell id="GqbEpFNVcH-FoVS1KwiD-540" value="" style="html=1;whiteSpace=wrap;shape=isoCube2;backgroundOutline=1;isoAngle=15;fillColor=#d5e8d4;strokeColor=#82b366;" parent="GqbEpFNVcH-FoVS1KwiD-520" vertex="1">
          <mxGeometry x="110" y="80" width="40" height="40" as="geometry" />
        </mxCell>
        <mxCell id="GqbEpFNVcH-FoVS1KwiD-541" value="" style="html=1;whiteSpace=wrap;shape=isoCube2;backgroundOutline=1;isoAngle=15;fillColor=#d5e8d4;strokeColor=#82b366;" parent="GqbEpFNVcH-FoVS1KwiD-520" vertex="1">
          <mxGeometry x="90" y="90" width="40" height="40" as="geometry" />
        </mxCell>
        <mxCell id="GqbEpFNVcH-FoVS1KwiD-542" value="" style="html=1;whiteSpace=wrap;shape=isoCube2;backgroundOutline=1;isoAngle=15;fillColor=#dae8fc;strokeColor=#6c8ebf;" parent="GqbEpFNVcH-FoVS1KwiD-520" vertex="1">
          <mxGeometry x="90" y="10" width="40" height="40" as="geometry" />
        </mxCell>
        <mxCell id="GqbEpFNVcH-FoVS1KwiD-543" value="" style="html=1;whiteSpace=wrap;shape=isoCube2;backgroundOutline=1;isoAngle=15;fillColor=#dae8fc;strokeColor=#6c8ebf;" parent="GqbEpFNVcH-FoVS1KwiD-520" vertex="1">
          <mxGeometry x="70" y="20" width="40" height="40" as="geometry" />
        </mxCell>
        <mxCell id="GqbEpFNVcH-FoVS1KwiD-544" value="" style="html=1;whiteSpace=wrap;shape=isoCube2;backgroundOutline=1;isoAngle=15;fillColor=#dae8fc;strokeColor=#6c8ebf;" parent="GqbEpFNVcH-FoVS1KwiD-520" vertex="1">
          <mxGeometry x="50" y="30" width="40" height="40" as="geometry" />
        </mxCell>
        <mxCell id="GqbEpFNVcH-FoVS1KwiD-545" value="" style="html=1;whiteSpace=wrap;shape=isoCube2;backgroundOutline=1;isoAngle=15;fillColor=#dae8fc;strokeColor=#6c8ebf;" parent="GqbEpFNVcH-FoVS1KwiD-520" vertex="1">
          <mxGeometry x="30" y="40" width="40" height="40" as="geometry" />
        </mxCell>
        <mxCell id="GqbEpFNVcH-FoVS1KwiD-546" value="" style="html=1;whiteSpace=wrap;shape=isoCube2;backgroundOutline=1;isoAngle=15;fillColor=#fff2cc;strokeColor=#d6b656;" parent="GqbEpFNVcH-FoVS1KwiD-520" vertex="1">
          <mxGeometry x="110" y="20" width="40" height="40" as="geometry" />
        </mxCell>
        <mxCell id="GqbEpFNVcH-FoVS1KwiD-547" value="" style="html=1;whiteSpace=wrap;shape=isoCube2;backgroundOutline=1;isoAngle=15;fillColor=#fff2cc;strokeColor=#d6b656;" parent="GqbEpFNVcH-FoVS1KwiD-520" vertex="1">
          <mxGeometry x="90" y="30" width="40" height="40" as="geometry" />
        </mxCell>
        <mxCell id="GqbEpFNVcH-FoVS1KwiD-548" value="" style="html=1;whiteSpace=wrap;shape=isoCube2;backgroundOutline=1;isoAngle=15;fillColor=#fff2cc;strokeColor=#d6b656;" parent="GqbEpFNVcH-FoVS1KwiD-520" vertex="1">
          <mxGeometry x="70" y="40" width="40" height="40" as="geometry" />
        </mxCell>
        <mxCell id="GqbEpFNVcH-FoVS1KwiD-549" value="" style="html=1;whiteSpace=wrap;shape=isoCube2;backgroundOutline=1;isoAngle=15;fillColor=#fff2cc;strokeColor=#d6b656;" parent="GqbEpFNVcH-FoVS1KwiD-520" vertex="1">
          <mxGeometry x="50" y="50" width="40" height="40" as="geometry" />
        </mxCell>
        <mxCell id="GqbEpFNVcH-FoVS1KwiD-550" value="" style="html=1;whiteSpace=wrap;shape=isoCube2;backgroundOutline=1;isoAngle=15;fillColor=#f8cecc;strokeColor=#b85450;" parent="GqbEpFNVcH-FoVS1KwiD-520" vertex="1">
          <mxGeometry x="130" y="30" width="40" height="40" as="geometry" />
        </mxCell>
        <mxCell id="GqbEpFNVcH-FoVS1KwiD-551" value="" style="html=1;whiteSpace=wrap;shape=isoCube2;backgroundOutline=1;isoAngle=15;fillColor=#f8cecc;strokeColor=#b85450;" parent="GqbEpFNVcH-FoVS1KwiD-520" vertex="1">
          <mxGeometry x="110" y="40" width="40" height="40" as="geometry" />
        </mxCell>
        <mxCell id="GqbEpFNVcH-FoVS1KwiD-552" value="" style="html=1;whiteSpace=wrap;shape=isoCube2;backgroundOutline=1;isoAngle=15;fillColor=#f8cecc;strokeColor=#b85450;" parent="GqbEpFNVcH-FoVS1KwiD-520" vertex="1">
          <mxGeometry x="90" y="50" width="40" height="40" as="geometry" />
        </mxCell>
        <mxCell id="GqbEpFNVcH-FoVS1KwiD-553" value="" style="html=1;whiteSpace=wrap;shape=isoCube2;backgroundOutline=1;isoAngle=15;fillColor=#f8cecc;strokeColor=#b85450;" parent="GqbEpFNVcH-FoVS1KwiD-520" vertex="1">
          <mxGeometry x="70" y="60" width="40" height="40" as="geometry" />
        </mxCell>
        <mxCell id="GqbEpFNVcH-FoVS1KwiD-554" value="" style="html=1;whiteSpace=wrap;shape=isoCube2;backgroundOutline=1;isoAngle=15;fillColor=#d5e8d4;strokeColor=#82b366;" parent="GqbEpFNVcH-FoVS1KwiD-520" vertex="1">
          <mxGeometry x="150" y="40" width="40" height="40" as="geometry" />
        </mxCell>
        <mxCell id="GqbEpFNVcH-FoVS1KwiD-555" value="" style="html=1;whiteSpace=wrap;shape=isoCube2;backgroundOutline=1;isoAngle=15;fillColor=#d5e8d4;strokeColor=#82b366;" parent="GqbEpFNVcH-FoVS1KwiD-520" vertex="1">
          <mxGeometry x="130" y="50" width="40" height="40" as="geometry" />
        </mxCell>
        <mxCell id="GqbEpFNVcH-FoVS1KwiD-556" value="" style="html=1;whiteSpace=wrap;shape=isoCube2;backgroundOutline=1;isoAngle=15;fillColor=#d5e8d4;strokeColor=#82b366;" parent="GqbEpFNVcH-FoVS1KwiD-520" vertex="1">
          <mxGeometry x="110" y="60" width="40" height="40" as="geometry" />
        </mxCell>
        <mxCell id="GqbEpFNVcH-FoVS1KwiD-557" value="" style="html=1;whiteSpace=wrap;shape=isoCube2;backgroundOutline=1;isoAngle=15;fillColor=#d5e8d4;strokeColor=#82b366;" parent="GqbEpFNVcH-FoVS1KwiD-520" vertex="1">
          <mxGeometry x="90" y="70" width="40" height="40" as="geometry" />
        </mxCell>
        <mxCell id="GqbEpFNVcH-FoVS1KwiD-558" value="B" style="text;html=1;align=center;verticalAlign=middle;whiteSpace=wrap;rounded=0;fontSize=14;fontStyle=1" parent="GqbEpFNVcH-FoVS1KwiD-520" vertex="1">
          <mxGeometry x="6" y="75" width="20" height="30" as="geometry" />
        </mxCell>
        <mxCell id="GqbEpFNVcH-FoVS1KwiD-559" value="T" style="text;html=1;align=center;verticalAlign=middle;whiteSpace=wrap;rounded=0;fontSize=14;fontStyle=1" parent="GqbEpFNVcH-FoVS1KwiD-520" vertex="1">
          <mxGeometry x="51" y="147" width="20" height="30" as="geometry" />
        </mxCell>
        <mxCell id="GqbEpFNVcH-FoVS1KwiD-560" value="E" style="text;html=1;align=center;verticalAlign=middle;whiteSpace=wrap;rounded=0;fontSize=14;fontStyle=1" parent="GqbEpFNVcH-FoVS1KwiD-520" vertex="1">
          <mxGeometry x="50" y="4" width="20" height="30" as="geometry" />
        </mxCell>
        <mxCell id="GqbEpFNVcH-FoVS1KwiD-569" value="output of ring attention local shape: B x T/P x E" style="text;html=1;align=center;verticalAlign=middle;whiteSpace=wrap;rounded=0;" parent="1" vertex="1">
          <mxGeometry x="65" y="986" width="130" height="30" as="geometry" />
        </mxCell>
        <mxCell id="y4HOhwScAJo7vnwQhUdL-65" value="" style="rounded=1;whiteSpace=wrap;html=1;" vertex="1" parent="1">
          <mxGeometry x="192" y="1205" width="58" height="47" as="geometry" />
        </mxCell>
        <mxCell id="y4HOhwScAJo7vnwQhUdL-67" value="" style="html=1;whiteSpace=wrap;shape=isoCube2;backgroundOutline=1;isoAngle=15;fillColor=#fff2cc;strokeColor=#d6b656;" vertex="1" parent="1">
          <mxGeometry x="199" y="1212" width="20" height="20" as="geometry" />
        </mxCell>
        <mxCell id="y4HOhwScAJo7vnwQhUdL-68" value="" style="html=1;whiteSpace=wrap;shape=isoCube2;backgroundOutline=1;isoAngle=15;fillColor=#fff2cc;strokeColor=#d6b656;" vertex="1" parent="1">
          <mxGeometry x="222" y="1212" width="20" height="20" as="geometry" />
        </mxCell>
        <mxCell id="y4HOhwScAJo7vnwQhUdL-69" value="&lt;div style=&quot;text-align: center;&quot;&gt;&lt;span style=&quot;background-color: initial;&quot;&gt;Q&lt;/span&gt;&lt;/div&gt;" style="text;whiteSpace=wrap;html=1;" vertex="1" parent="1">
          <mxGeometry x="56.5" y="1226.75" width="14.5" height="23" as="geometry" />
        </mxCell>
        <mxCell id="y4HOhwScAJo7vnwQhUdL-70" value="&lt;div style=&quot;text-align: center;&quot;&gt;&lt;span style=&quot;background-color: initial;&quot;&gt;K&lt;/span&gt;&lt;/div&gt;" style="text;whiteSpace=wrap;html=1;" vertex="1" parent="1">
          <mxGeometry x="202" y="1226" width="19" height="20" as="geometry" />
        </mxCell>
        <mxCell id="y4HOhwScAJo7vnwQhUdL-71" value="&lt;div style=&quot;text-align: center;&quot;&gt;&lt;span style=&quot;background-color: initial;&quot;&gt;V&lt;/span&gt;&lt;/div&gt;" style="text;whiteSpace=wrap;html=1;" vertex="1" parent="1">
          <mxGeometry x="226" y="1226" width="18" height="20" as="geometry" />
        </mxCell>
        <mxCell id="y4HOhwScAJo7vnwQhUdL-104" value="&lt;div style=&quot;forced-color-adjust: none; font-family: Helvetica; font-style: normal; font-variant-ligatures: normal; font-variant-caps: normal; font-weight: 400; letter-spacing: normal; orphans: 2; text-align: center; text-indent: 0px; text-transform: none; widows: 2; word-spacing: 0px; -webkit-text-stroke-width: 0px; white-space: nowrap; text-decoration-thickness: initial; text-decoration-style: initial; text-decoration-color: initial;&quot;&gt;&lt;span style=&quot;font-size: 14px;&quot;&gt;isend/&lt;/span&gt;&lt;/div&gt;&lt;div style=&quot;forced-color-adjust: none; font-family: Helvetica; font-style: normal; font-variant-ligatures: normal; font-variant-caps: normal; font-weight: 400; letter-spacing: normal; orphans: 2; text-align: center; text-indent: 0px; text-transform: none; widows: 2; word-spacing: 0px; -webkit-text-stroke-width: 0px; white-space: nowrap; text-decoration-thickness: initial; text-decoration-style: initial; text-decoration-color: initial;&quot;&gt;&lt;span style=&quot;font-size: 14px;&quot;&gt;irecv&lt;/span&gt;&lt;br&gt;&lt;/div&gt;" style="text;whiteSpace=wrap;html=1;fontColor=default;labelBackgroundColor=none;" vertex="1" parent="1">
          <mxGeometry x="709" y="501.5" width="60" height="22.5" as="geometry" />
        </mxCell>
        <mxCell id="y4HOhwScAJo7vnwQhUdL-105" value="" style="shape=flexArrow;endArrow=classic;html=1;rounded=0;endWidth=28;endSize=11.194736842105263;width=50;fillColor=#f5f5f5;strokeColor=#666666;strokeWidth=2;" edge="1" parent="1">
          <mxGeometry width="50" height="50" relative="1" as="geometry">
            <mxPoint x="958" y="685" as="sourcePoint" />
            <mxPoint x="958" y="745" as="targetPoint" />
          </mxGeometry>
        </mxCell>
        <mxCell id="y4HOhwScAJo7vnwQhUdL-106" value="&lt;div style=&quot;forced-color-adjust: none; font-family: Helvetica; font-style: normal; font-variant-ligatures: normal; font-variant-caps: normal; font-weight: 400; letter-spacing: normal; orphans: 2; text-align: center; text-indent: 0px; text-transform: none; widows: 2; word-spacing: 0px; -webkit-text-stroke-width: 0px; white-space: nowrap; text-decoration-thickness: initial; text-decoration-style: initial; text-decoration-color: initial;&quot;&gt;&lt;span style=&quot;font-size: 14px;&quot;&gt;isend/&lt;/span&gt;&lt;/div&gt;&lt;div style=&quot;forced-color-adjust: none; font-family: Helvetica; font-style: normal; font-variant-ligatures: normal; font-variant-caps: normal; font-weight: 400; letter-spacing: normal; orphans: 2; text-align: center; text-indent: 0px; text-transform: none; widows: 2; word-spacing: 0px; -webkit-text-stroke-width: 0px; white-space: nowrap; text-decoration-thickness: initial; text-decoration-style: initial; text-decoration-color: initial;&quot;&gt;&lt;span style=&quot;font-size: 14px;&quot;&gt;irecv&lt;/span&gt;&lt;br&gt;&lt;/div&gt;" style="text;whiteSpace=wrap;html=1;fontColor=default;labelBackgroundColor=none;strokeWidth=2;" vertex="1" parent="1">
          <mxGeometry x="937" y="687" width="53" height="40" as="geometry" />
        </mxCell>
        <mxCell id="y4HOhwScAJo7vnwQhUdL-112" value="&lt;div&gt;&lt;br/&gt;&lt;/div&gt;" style="rounded=1;whiteSpace=wrap;html=1;" vertex="1" parent="1">
          <mxGeometry x="913.5" y="806" width="90" height="47" as="geometry" />
        </mxCell>
        <mxCell id="y4HOhwScAJo7vnwQhUdL-113" value="" style="html=1;whiteSpace=wrap;shape=isoCube2;backgroundOutline=1;isoAngle=15;fillColor=#dae8fc;strokeColor=#6c8ebf;" vertex="1" parent="1">
          <mxGeometry x="949.5" y="762" width="20" height="20" as="geometry" />
        </mxCell>
        <mxCell id="y4HOhwScAJo7vnwQhUdL-114" value="" style="html=1;whiteSpace=wrap;shape=isoCube2;backgroundOutline=1;isoAngle=15;fillColor=#f8cecc;strokeColor=#b85450;" vertex="1" parent="1">
          <mxGeometry x="925.5" y="812" width="20" height="20" as="geometry" />
        </mxCell>
        <mxCell id="y4HOhwScAJo7vnwQhUdL-115" value="" style="html=1;whiteSpace=wrap;shape=isoCube2;backgroundOutline=1;isoAngle=15;fillColor=#f8cecc;strokeColor=#b85450;" vertex="1" parent="1">
          <mxGeometry x="969.5" y="812" width="20" height="20" as="geometry" />
        </mxCell>
        <mxCell id="y4HOhwScAJo7vnwQhUdL-116" value="&lt;div style=&quot;text-align: center;&quot;&gt;&lt;span style=&quot;background-color: initial;&quot;&gt;queries&lt;/span&gt;&lt;/div&gt;" style="text;whiteSpace=wrap;html=1;" vertex="1" parent="1">
          <mxGeometry x="936.5" y="776" width="29" height="23" as="geometry" />
        </mxCell>
        <mxCell id="y4HOhwScAJo7vnwQhUdL-117" value="&lt;div style=&quot;text-align: center;&quot;&gt;&lt;span style=&quot;background-color: initial;&quot;&gt;keys&lt;/span&gt;&lt;/div&gt;" style="text;whiteSpace=wrap;html=1;" vertex="1" parent="1">
          <mxGeometry x="920.5" y="826" width="30" height="20" as="geometry" />
        </mxCell>
        <mxCell id="y4HOhwScAJo7vnwQhUdL-118" value="&lt;div style=&quot;text-align: center;&quot;&gt;&lt;span style=&quot;background-color: initial;&quot;&gt;values&lt;/span&gt;&lt;/div&gt;" style="text;whiteSpace=wrap;html=1;" vertex="1" parent="1">
          <mxGeometry x="959.5" y="826" width="30" height="20" as="geometry" />
        </mxCell>
        <mxCell id="y4HOhwScAJo7vnwQhUdL-119" value="" style="rounded=1;whiteSpace=wrap;html=1;" vertex="1" parent="1">
          <mxGeometry x="841.5" y="881" width="90" height="47" as="geometry" />
        </mxCell>
        <mxCell id="y4HOhwScAJo7vnwQhUdL-120" value="" style="html=1;whiteSpace=wrap;shape=isoCube2;backgroundOutline=1;isoAngle=15;fillColor=#d5e8d4;strokeColor=#82b366;" vertex="1" parent="1">
          <mxGeometry x="804.5" y="887" width="20" height="20" as="geometry" />
        </mxCell>
        <mxCell id="y4HOhwScAJo7vnwQhUdL-121" value="" style="html=1;whiteSpace=wrap;shape=isoCube2;backgroundOutline=1;isoAngle=15;fillColor=#fff2cc;strokeColor=#d6b656;" vertex="1" parent="1">
          <mxGeometry x="853.5" y="887" width="20" height="20" as="geometry" />
        </mxCell>
        <mxCell id="y4HOhwScAJo7vnwQhUdL-122" value="" style="html=1;whiteSpace=wrap;shape=isoCube2;backgroundOutline=1;isoAngle=15;fillColor=#fff2cc;strokeColor=#d6b656;" vertex="1" parent="1">
          <mxGeometry x="897.5" y="887" width="20" height="20" as="geometry" />
        </mxCell>
        <mxCell id="y4HOhwScAJo7vnwQhUdL-123" value="&lt;div style=&quot;text-align: center;&quot;&gt;&lt;span style=&quot;background-color: initial;&quot;&gt;queries&lt;/span&gt;&lt;/div&gt;" style="text;whiteSpace=wrap;html=1;" vertex="1" parent="1">
          <mxGeometry x="792.5" y="901" width="30" height="20" as="geometry" />
        </mxCell>
        <mxCell id="y4HOhwScAJo7vnwQhUdL-124" value="&lt;div style=&quot;text-align: center;&quot;&gt;&lt;span style=&quot;background-color: initial;&quot;&gt;keys&lt;/span&gt;&lt;/div&gt;" style="text;whiteSpace=wrap;html=1;" vertex="1" parent="1">
          <mxGeometry x="848.5" y="901" width="30" height="20" as="geometry" />
        </mxCell>
        <mxCell id="y4HOhwScAJo7vnwQhUdL-125" value="&lt;div style=&quot;text-align: center;&quot;&gt;&lt;span style=&quot;background-color: initial;&quot;&gt;values&lt;/span&gt;&lt;/div&gt;" style="text;whiteSpace=wrap;html=1;" vertex="1" parent="1">
          <mxGeometry x="887.5" y="901" width="30" height="20" as="geometry" />
        </mxCell>
        <mxCell id="y4HOhwScAJo7vnwQhUdL-126" value="" style="rounded=1;whiteSpace=wrap;html=1;" vertex="1" parent="1">
          <mxGeometry x="984.5" y="880" width="90" height="47" as="geometry" />
        </mxCell>
        <mxCell id="y4HOhwScAJo7vnwQhUdL-127" value="" style="html=1;whiteSpace=wrap;shape=isoCube2;backgroundOutline=1;isoAngle=15;fillColor=#fff2cc;strokeColor=#d6b656;" vertex="1" parent="1">
          <mxGeometry x="1091.5" y="886" width="20" height="20" as="geometry" />
        </mxCell>
        <mxCell id="y4HOhwScAJo7vnwQhUdL-128" value="" style="html=1;whiteSpace=wrap;shape=isoCube2;backgroundOutline=1;isoAngle=15;fillColor=#d5e8d4;strokeColor=#82b366;" vertex="1" parent="1">
          <mxGeometry x="996.5" y="886" width="20" height="20" as="geometry" />
        </mxCell>
        <mxCell id="y4HOhwScAJo7vnwQhUdL-129" value="" style="html=1;whiteSpace=wrap;shape=isoCube2;backgroundOutline=1;isoAngle=15;fillColor=#d5e8d4;strokeColor=#82b366;" vertex="1" parent="1">
          <mxGeometry x="1040.5" y="886" width="20" height="20" as="geometry" />
        </mxCell>
        <mxCell id="y4HOhwScAJo7vnwQhUdL-130" value="&lt;div style=&quot;text-align: center;&quot;&gt;&lt;span style=&quot;background-color: initial;&quot;&gt;queries&lt;/span&gt;&lt;/div&gt;" style="text;whiteSpace=wrap;html=1;" vertex="1" parent="1">
          <mxGeometry x="1080.5" y="900" width="30" height="20" as="geometry" />
        </mxCell>
        <mxCell id="y4HOhwScAJo7vnwQhUdL-131" value="&lt;div style=&quot;text-align: center;&quot;&gt;&lt;span style=&quot;background-color: initial;&quot;&gt;keys&lt;/span&gt;&lt;/div&gt;" style="text;whiteSpace=wrap;html=1;" vertex="1" parent="1">
          <mxGeometry x="991.5" y="900" width="30" height="20" as="geometry" />
        </mxCell>
        <mxCell id="y4HOhwScAJo7vnwQhUdL-132" value="&lt;div style=&quot;text-align: center;&quot;&gt;&lt;span style=&quot;background-color: initial;&quot;&gt;values&lt;/span&gt;&lt;/div&gt;" style="text;whiteSpace=wrap;html=1;" vertex="1" parent="1">
          <mxGeometry x="1030.5" y="900" width="30" height="20" as="geometry" />
        </mxCell>
        <mxCell id="y4HOhwScAJo7vnwQhUdL-133" value="" style="rounded=1;whiteSpace=wrap;html=1;" vertex="1" parent="1">
          <mxGeometry x="914.5" y="952" width="90" height="47" as="geometry" />
        </mxCell>
        <mxCell id="y4HOhwScAJo7vnwQhUdL-134" value="" style="html=1;whiteSpace=wrap;shape=isoCube2;backgroundOutline=1;isoAngle=15;fillColor=#f8cecc;strokeColor=#b85450;" vertex="1" parent="1">
          <mxGeometry x="951" y="1006" width="20" height="20" as="geometry" />
        </mxCell>
        <mxCell id="y4HOhwScAJo7vnwQhUdL-135" value="" style="html=1;whiteSpace=wrap;shape=isoCube2;backgroundOutline=1;isoAngle=15;fillColor=#dae8fc;strokeColor=#6c8ebf;" vertex="1" parent="1">
          <mxGeometry x="926.5" y="958" width="20" height="20" as="geometry" />
        </mxCell>
        <mxCell id="y4HOhwScAJo7vnwQhUdL-136" value="" style="html=1;whiteSpace=wrap;shape=isoCube2;backgroundOutline=1;isoAngle=15;fillColor=#dae8fc;strokeColor=#6c8ebf;" vertex="1" parent="1">
          <mxGeometry x="970.5" y="958" width="20" height="20" as="geometry" />
        </mxCell>
        <mxCell id="y4HOhwScAJo7vnwQhUdL-137" value="&lt;div style=&quot;text-align: center;&quot;&gt;&lt;span style=&quot;background-color: initial;&quot;&gt;queries&lt;/span&gt;&lt;/div&gt;" style="text;whiteSpace=wrap;html=1;" vertex="1" parent="1">
          <mxGeometry x="938" y="1020" width="29" height="23" as="geometry" />
        </mxCell>
        <mxCell id="y4HOhwScAJo7vnwQhUdL-138" value="&lt;div style=&quot;text-align: center;&quot;&gt;&lt;span style=&quot;background-color: initial;&quot;&gt;keys&lt;/span&gt;&lt;/div&gt;" style="text;whiteSpace=wrap;html=1;" vertex="1" parent="1">
          <mxGeometry x="921.5" y="972" width="30" height="20" as="geometry" />
        </mxCell>
        <mxCell id="y4HOhwScAJo7vnwQhUdL-139" value="&lt;div style=&quot;text-align: center;&quot;&gt;&lt;span style=&quot;background-color: initial;&quot;&gt;values&lt;/span&gt;&lt;/div&gt;" style="text;whiteSpace=wrap;html=1;" vertex="1" parent="1">
          <mxGeometry x="960.5" y="972" width="30" height="20" as="geometry" />
        </mxCell>
        <mxCell id="y4HOhwScAJo7vnwQhUdL-140" value="" style="html=1;shadow=0;dashed=0;align=center;verticalAlign=middle;shape=mxgraph.arrows2.bendArrow;dy=3.49;dx=18.06;notch=0;arrowHead=15.59;rounded=1;fillColor=#f5f5f5;fontColor=#333333;strokeColor=#666666;" vertex="1" parent="1">
          <mxGeometry x="861" y="823" width="45" height="50" as="geometry" />
        </mxCell>
        <mxCell id="y4HOhwScAJo7vnwQhUdL-141" value="" style="html=1;shadow=0;dashed=0;align=center;verticalAlign=middle;shape=mxgraph.arrows2.bendArrow;dy=3.58;dx=16.47;notch=0;arrowHead=17.6;rounded=1;fillColor=#f5f5f5;fontColor=#333333;strokeColor=#666666;rotation=-90;" vertex="1" parent="1">
          <mxGeometry x="859.5" y="933" width="45" height="50" as="geometry" />
        </mxCell>
        <mxCell id="y4HOhwScAJo7vnwQhUdL-142" value="" style="html=1;shadow=0;dashed=0;align=center;verticalAlign=middle;shape=mxgraph.arrows2.bendArrow;dy=3.49;dx=18.06;notch=0;arrowHead=15.59;rounded=1;fillColor=#f5f5f5;fontColor=#333333;strokeColor=#666666;rotation=90;" vertex="1" parent="1">
          <mxGeometry x="1011.5" y="826" width="45" height="50" as="geometry" />
        </mxCell>
        <mxCell id="y4HOhwScAJo7vnwQhUdL-143" value="" style="html=1;shadow=0;dashed=0;align=center;verticalAlign=middle;shape=mxgraph.arrows2.bendArrow;dy=3.49;dx=18.06;notch=0;arrowHead=15.59;rounded=1;fillColor=#f5f5f5;fontColor=#333333;strokeColor=#666666;rotation=-180;" vertex="1" parent="1">
          <mxGeometry x="1011.5" y="935" width="45" height="50" as="geometry" />
        </mxCell>
        <mxCell id="y4HOhwScAJo7vnwQhUdL-144" value="" style="shape=flexArrow;endArrow=classic;html=1;rounded=0;endWidth=26;endSize=12;width=48;fillColor=#f5f5f5;strokeColor=#666666;strokeWidth=2;" edge="1" parent="1">
          <mxGeometry width="50" height="50" relative="1" as="geometry">
            <mxPoint x="775" y="908" as="sourcePoint" />
            <mxPoint x="704" y="908" as="targetPoint" />
          </mxGeometry>
        </mxCell>
        <mxCell id="y4HOhwScAJo7vnwQhUdL-145" value="&lt;div style=&quot;forced-color-adjust: none; font-family: Helvetica; font-style: normal; font-variant-ligatures: normal; font-variant-caps: normal; font-weight: 400; letter-spacing: normal; orphans: 2; text-align: center; text-indent: 0px; text-transform: none; widows: 2; word-spacing: 0px; -webkit-text-stroke-width: 0px; white-space: nowrap; text-decoration-thickness: initial; text-decoration-style: initial; text-decoration-color: initial;&quot;&gt;&lt;span style=&quot;font-size: 14px;&quot;&gt;isend/&lt;/span&gt;&lt;/div&gt;&lt;div style=&quot;forced-color-adjust: none; font-family: Helvetica; font-style: normal; font-variant-ligatures: normal; font-variant-caps: normal; font-weight: 400; letter-spacing: normal; orphans: 2; text-align: center; text-indent: 0px; text-transform: none; widows: 2; word-spacing: 0px; -webkit-text-stroke-width: 0px; white-space: nowrap; text-decoration-thickness: initial; text-decoration-style: initial; text-decoration-color: initial;&quot;&gt;&lt;span style=&quot;font-size: 14px;&quot;&gt;irecv&lt;/span&gt;&lt;br&gt;&lt;/div&gt;" style="text;whiteSpace=wrap;html=1;fontColor=default;labelBackgroundColor=none;strokeWidth=2;" vertex="1" parent="1">
          <mxGeometry x="725" y="885" width="60" height="22.5" as="geometry" />
        </mxCell>
        <mxCell id="y4HOhwScAJo7vnwQhUdL-146" value="&lt;div&gt;&lt;br/&gt;&lt;/div&gt;" style="rounded=1;whiteSpace=wrap;html=1;" vertex="1" parent="1">
          <mxGeometry x="476" y="808" width="90" height="47" as="geometry" />
        </mxCell>
        <mxCell id="y4HOhwScAJo7vnwQhUdL-147" value="" style="html=1;whiteSpace=wrap;shape=isoCube2;backgroundOutline=1;isoAngle=15;fillColor=#dae8fc;strokeColor=#6c8ebf;" vertex="1" parent="1">
          <mxGeometry x="512" y="764" width="20" height="20" as="geometry" />
        </mxCell>
        <mxCell id="y4HOhwScAJo7vnwQhUdL-148" value="" style="html=1;whiteSpace=wrap;shape=isoCube2;backgroundOutline=1;isoAngle=15;fillColor=#fff2cc;strokeColor=#d6b656;" vertex="1" parent="1">
          <mxGeometry x="488" y="814" width="20" height="20" as="geometry" />
        </mxCell>
        <mxCell id="y4HOhwScAJo7vnwQhUdL-149" value="" style="html=1;whiteSpace=wrap;shape=isoCube2;backgroundOutline=1;isoAngle=15;fillColor=#fff2cc;strokeColor=#d6b656;" vertex="1" parent="1">
          <mxGeometry x="532" y="814" width="20" height="20" as="geometry" />
        </mxCell>
        <mxCell id="y4HOhwScAJo7vnwQhUdL-150" value="&lt;div style=&quot;text-align: center;&quot;&gt;&lt;span style=&quot;background-color: initial;&quot;&gt;queries&lt;/span&gt;&lt;/div&gt;" style="text;whiteSpace=wrap;html=1;" vertex="1" parent="1">
          <mxGeometry x="499" y="778" width="29" height="23" as="geometry" />
        </mxCell>
        <mxCell id="y4HOhwScAJo7vnwQhUdL-151" value="&lt;div style=&quot;text-align: center;&quot;&gt;&lt;span style=&quot;background-color: initial;&quot;&gt;keys&lt;/span&gt;&lt;/div&gt;" style="text;whiteSpace=wrap;html=1;" vertex="1" parent="1">
          <mxGeometry x="483" y="828" width="30" height="20" as="geometry" />
        </mxCell>
        <mxCell id="y4HOhwScAJo7vnwQhUdL-152" value="&lt;div style=&quot;text-align: center;&quot;&gt;&lt;span style=&quot;background-color: initial;&quot;&gt;values&lt;/span&gt;&lt;/div&gt;" style="text;whiteSpace=wrap;html=1;" vertex="1" parent="1">
          <mxGeometry x="522" y="828" width="30" height="20" as="geometry" />
        </mxCell>
        <mxCell id="y4HOhwScAJo7vnwQhUdL-153" value="" style="rounded=1;whiteSpace=wrap;html=1;" vertex="1" parent="1">
          <mxGeometry x="404" y="883" width="90" height="47" as="geometry" />
        </mxCell>
        <mxCell id="y4HOhwScAJo7vnwQhUdL-154" value="" style="html=1;whiteSpace=wrap;shape=isoCube2;backgroundOutline=1;isoAngle=15;fillColor=#d5e8d4;strokeColor=#82b366;" vertex="1" parent="1">
          <mxGeometry x="367" y="889" width="20" height="20" as="geometry" />
        </mxCell>
        <mxCell id="y4HOhwScAJo7vnwQhUdL-155" value="" style="html=1;whiteSpace=wrap;shape=isoCube2;backgroundOutline=1;isoAngle=15;fillColor=#dae8fc;strokeColor=#6c8ebf;" vertex="1" parent="1">
          <mxGeometry x="416" y="889" width="20" height="20" as="geometry" />
        </mxCell>
        <mxCell id="y4HOhwScAJo7vnwQhUdL-156" value="" style="html=1;whiteSpace=wrap;shape=isoCube2;backgroundOutline=1;isoAngle=15;fillColor=#dae8fc;strokeColor=#6c8ebf;" vertex="1" parent="1">
          <mxGeometry x="460" y="889" width="20" height="20" as="geometry" />
        </mxCell>
        <mxCell id="y4HOhwScAJo7vnwQhUdL-157" value="&lt;div style=&quot;text-align: center;&quot;&gt;&lt;span style=&quot;background-color: initial;&quot;&gt;queries&lt;/span&gt;&lt;/div&gt;" style="text;whiteSpace=wrap;html=1;" vertex="1" parent="1">
          <mxGeometry x="355" y="903" width="30" height="20" as="geometry" />
        </mxCell>
        <mxCell id="y4HOhwScAJo7vnwQhUdL-158" value="&lt;div style=&quot;text-align: center;&quot;&gt;&lt;span style=&quot;background-color: initial;&quot;&gt;keys&lt;/span&gt;&lt;/div&gt;" style="text;whiteSpace=wrap;html=1;" vertex="1" parent="1">
          <mxGeometry x="411" y="903" width="30" height="20" as="geometry" />
        </mxCell>
        <mxCell id="y4HOhwScAJo7vnwQhUdL-159" value="&lt;div style=&quot;text-align: center;&quot;&gt;&lt;span style=&quot;background-color: initial;&quot;&gt;values&lt;/span&gt;&lt;/div&gt;" style="text;whiteSpace=wrap;html=1;" vertex="1" parent="1">
          <mxGeometry x="450" y="903" width="30" height="20" as="geometry" />
        </mxCell>
        <mxCell id="y4HOhwScAJo7vnwQhUdL-160" value="" style="rounded=1;whiteSpace=wrap;html=1;" vertex="1" parent="1">
          <mxGeometry x="547" y="882" width="90" height="47" as="geometry" />
        </mxCell>
        <mxCell id="y4HOhwScAJo7vnwQhUdL-161" value="" style="html=1;whiteSpace=wrap;shape=isoCube2;backgroundOutline=1;isoAngle=15;fillColor=#fff2cc;strokeColor=#d6b656;" vertex="1" parent="1">
          <mxGeometry x="654" y="888" width="20" height="20" as="geometry" />
        </mxCell>
        <mxCell id="y4HOhwScAJo7vnwQhUdL-162" value="" style="html=1;whiteSpace=wrap;shape=isoCube2;backgroundOutline=1;isoAngle=15;fillColor=#f8cecc;strokeColor=#b85450;" vertex="1" parent="1">
          <mxGeometry x="559" y="888" width="20" height="20" as="geometry" />
        </mxCell>
        <mxCell id="y4HOhwScAJo7vnwQhUdL-163" value="" style="html=1;whiteSpace=wrap;shape=isoCube2;backgroundOutline=1;isoAngle=15;fillColor=#f8cecc;strokeColor=#b85450;" vertex="1" parent="1">
          <mxGeometry x="603" y="888" width="20" height="20" as="geometry" />
        </mxCell>
        <mxCell id="y4HOhwScAJo7vnwQhUdL-164" value="&lt;div style=&quot;text-align: center;&quot;&gt;&lt;span style=&quot;background-color: initial;&quot;&gt;queries&lt;/span&gt;&lt;/div&gt;" style="text;whiteSpace=wrap;html=1;" vertex="1" parent="1">
          <mxGeometry x="643" y="902" width="30" height="20" as="geometry" />
        </mxCell>
        <mxCell id="y4HOhwScAJo7vnwQhUdL-165" value="&lt;div style=&quot;text-align: center;&quot;&gt;&lt;span style=&quot;background-color: initial;&quot;&gt;keys&lt;/span&gt;&lt;/div&gt;" style="text;whiteSpace=wrap;html=1;" vertex="1" parent="1">
          <mxGeometry x="554" y="902" width="30" height="20" as="geometry" />
        </mxCell>
        <mxCell id="y4HOhwScAJo7vnwQhUdL-166" value="&lt;div style=&quot;text-align: center;&quot;&gt;&lt;span style=&quot;background-color: initial;&quot;&gt;values&lt;/span&gt;&lt;/div&gt;" style="text;whiteSpace=wrap;html=1;" vertex="1" parent="1">
          <mxGeometry x="593" y="902" width="30" height="20" as="geometry" />
        </mxCell>
        <mxCell id="y4HOhwScAJo7vnwQhUdL-167" value="" style="rounded=1;whiteSpace=wrap;html=1;" vertex="1" parent="1">
          <mxGeometry x="477" y="954" width="90" height="47" as="geometry" />
        </mxCell>
        <mxCell id="y4HOhwScAJo7vnwQhUdL-168" value="" style="html=1;whiteSpace=wrap;shape=isoCube2;backgroundOutline=1;isoAngle=15;fillColor=#f8cecc;strokeColor=#b85450;" vertex="1" parent="1">
          <mxGeometry x="513.5" y="1008" width="20" height="20" as="geometry" />
        </mxCell>
        <mxCell id="y4HOhwScAJo7vnwQhUdL-169" value="" style="html=1;whiteSpace=wrap;shape=isoCube2;backgroundOutline=1;isoAngle=15;fillColor=#d5e8d4;strokeColor=#82b366;" vertex="1" parent="1">
          <mxGeometry x="489" y="960" width="20" height="20" as="geometry" />
        </mxCell>
        <mxCell id="y4HOhwScAJo7vnwQhUdL-170" value="" style="html=1;whiteSpace=wrap;shape=isoCube2;backgroundOutline=1;isoAngle=15;fillColor=#d5e8d4;strokeColor=#82b366;" vertex="1" parent="1">
          <mxGeometry x="533" y="960" width="20" height="20" as="geometry" />
        </mxCell>
        <mxCell id="y4HOhwScAJo7vnwQhUdL-171" value="&lt;div style=&quot;text-align: center;&quot;&gt;&lt;span style=&quot;background-color: initial;&quot;&gt;queries&lt;/span&gt;&lt;/div&gt;" style="text;whiteSpace=wrap;html=1;" vertex="1" parent="1">
          <mxGeometry x="500.5" y="1022" width="29" height="23" as="geometry" />
        </mxCell>
        <mxCell id="y4HOhwScAJo7vnwQhUdL-172" value="&lt;div style=&quot;text-align: center;&quot;&gt;&lt;span style=&quot;background-color: initial;&quot;&gt;keys&lt;/span&gt;&lt;/div&gt;" style="text;whiteSpace=wrap;html=1;" vertex="1" parent="1">
          <mxGeometry x="484" y="974" width="30" height="20" as="geometry" />
        </mxCell>
        <mxCell id="y4HOhwScAJo7vnwQhUdL-173" value="&lt;div style=&quot;text-align: center;&quot;&gt;&lt;span style=&quot;background-color: initial;&quot;&gt;values&lt;/span&gt;&lt;/div&gt;" style="text;whiteSpace=wrap;html=1;" vertex="1" parent="1">
          <mxGeometry x="523" y="974" width="30" height="20" as="geometry" />
        </mxCell>
        <mxCell id="y4HOhwScAJo7vnwQhUdL-174" value="" style="html=1;shadow=0;dashed=0;align=center;verticalAlign=middle;shape=mxgraph.arrows2.bendArrow;dy=3.49;dx=18.06;notch=0;arrowHead=15.59;rounded=1;fillColor=#f5f5f5;fontColor=#333333;strokeColor=#666666;" vertex="1" parent="1">
          <mxGeometry x="423.5" y="825" width="45" height="50" as="geometry" />
        </mxCell>
        <mxCell id="y4HOhwScAJo7vnwQhUdL-175" value="" style="html=1;shadow=0;dashed=0;align=center;verticalAlign=middle;shape=mxgraph.arrows2.bendArrow;dy=3.58;dx=16.47;notch=0;arrowHead=17.6;rounded=1;fillColor=#f5f5f5;fontColor=#333333;strokeColor=#666666;rotation=-90;" vertex="1" parent="1">
          <mxGeometry x="422" y="935" width="45" height="50" as="geometry" />
        </mxCell>
        <mxCell id="y4HOhwScAJo7vnwQhUdL-176" value="" style="html=1;shadow=0;dashed=0;align=center;verticalAlign=middle;shape=mxgraph.arrows2.bendArrow;dy=3.49;dx=18.06;notch=0;arrowHead=15.59;rounded=1;fillColor=#f5f5f5;fontColor=#333333;strokeColor=#666666;rotation=90;" vertex="1" parent="1">
          <mxGeometry x="574" y="828" width="45" height="50" as="geometry" />
        </mxCell>
        <mxCell id="y4HOhwScAJo7vnwQhUdL-177" value="" style="html=1;shadow=0;dashed=0;align=center;verticalAlign=middle;shape=mxgraph.arrows2.bendArrow;dy=3.49;dx=18.06;notch=0;arrowHead=15.59;rounded=1;fillColor=#f5f5f5;fontColor=#333333;strokeColor=#666666;rotation=-180;" vertex="1" parent="1">
          <mxGeometry x="574" y="937" width="45" height="50" as="geometry" />
        </mxCell>
        <mxCell id="y4HOhwScAJo7vnwQhUdL-179" value="" style="shape=flexArrow;endArrow=classic;html=1;rounded=0;endWidth=26;endSize=12;width=48;fillColor=#f5f5f5;strokeColor=#666666;strokeWidth=2;" edge="1" parent="1">
          <mxGeometry width="50" height="50" relative="1" as="geometry">
            <mxPoint x="332" y="908" as="sourcePoint" />
            <mxPoint x="236" y="908" as="targetPoint" />
          </mxGeometry>
        </mxCell>
        <mxCell id="y4HOhwScAJo7vnwQhUdL-180" value="&lt;div&gt;&lt;span style=&quot;font-size: 14px;&quot;&gt;end of ring&lt;/span&gt;&lt;/div&gt;&lt;div&gt;&lt;span style=&quot;font-size: 14px;&quot;&gt;attention&lt;/span&gt;&lt;/div&gt;" style="edgeLabel;html=1;align=center;verticalAlign=middle;resizable=0;points=[];fontColor=default;labelBackgroundColor=none;" vertex="1" connectable="0" parent="y4HOhwScAJo7vnwQhUdL-179">
          <mxGeometry x="-0.2239" y="-1" relative="1" as="geometry">
            <mxPoint x="-4" y="-1" as="offset" />
          </mxGeometry>
        </mxCell>
        <mxCell id="y4HOhwScAJo7vnwQhUdL-181" value="output of multi head attention local shape: B x T/P x E" style="text;html=1;align=center;verticalAlign=middle;whiteSpace=wrap;rounded=0;" vertex="1" parent="1">
          <mxGeometry x="645.5" y="225" width="164.5" height="30" as="geometry" />
        </mxCell>
        <mxCell id="y4HOhwScAJo7vnwQhUdL-424" value="&lt;b style=&quot;font-size: 16px;&quot;&gt;2nd Ring Attention step&lt;/b&gt;" style="text;html=1;align=center;verticalAlign=middle;whiteSpace=wrap;rounded=0;fontSize=16;" vertex="1" parent="1">
          <mxGeometry x="869" y="343" width="183" height="30" as="geometry" />
        </mxCell>
        <mxCell id="y4HOhwScAJo7vnwQhUdL-427" value="&lt;b style=&quot;font-size: 16px;&quot;&gt;1st Ring Attention step&lt;/b&gt;" style="text;html=1;align=center;verticalAlign=middle;whiteSpace=wrap;rounded=0;fontSize=16;" vertex="1" parent="1">
          <mxGeometry x="429.5" y="343" width="183" height="30" as="geometry" />
        </mxCell>
        <mxCell id="y4HOhwScAJo7vnwQhUdL-429" value="&lt;b style=&quot;font-size: 16px;&quot;&gt;3rd Ring Attention step&lt;/b&gt;" style="text;html=1;align=center;verticalAlign=middle;whiteSpace=wrap;rounded=0;fontSize=16;" vertex="1" parent="1">
          <mxGeometry x="880" y="1051.5" width="183" height="30" as="geometry" />
        </mxCell>
        <mxCell id="y4HOhwScAJo7vnwQhUdL-430" value="&lt;b style=&quot;font-size: 16px;&quot;&gt;4th Ring Attention step&lt;/b&gt;" style="text;html=1;align=center;verticalAlign=middle;whiteSpace=wrap;rounded=0;fontSize=16;" vertex="1" parent="1">
          <mxGeometry x="449" y="1051.5" width="183" height="30" as="geometry" />
        </mxCell>
        <mxCell id="y4HOhwScAJo7vnwQhUdL-431" value="&lt;b&gt;Before Ring Attention&lt;/b&gt;" style="text;html=1;align=center;verticalAlign=middle;whiteSpace=wrap;rounded=0;fontSize=16;" vertex="1" parent="1">
          <mxGeometry x="40" y="383" width="189" height="30" as="geometry" />
        </mxCell>
        <mxCell id="y4HOhwScAJo7vnwQhUdL-432" value="&lt;b&gt;After Ring Attention&lt;/b&gt;" style="text;html=1;align=center;verticalAlign=middle;whiteSpace=wrap;rounded=0;fontSize=16;" vertex="1" parent="1">
          <mxGeometry x="44.5" y="1026.5" width="189" height="30" as="geometry" />
        </mxCell>
        <mxCell id="y4HOhwScAJo7vnwQhUdL-463" value="+" style="text;html=1;align=center;verticalAlign=middle;whiteSpace=wrap;rounded=0;fontSize=16;fontStyle=1" vertex="1" parent="1">
          <mxGeometry x="75" y="1206.5" width="35" height="30" as="geometry" />
        </mxCell>
        <mxCell id="y4HOhwScAJo7vnwQhUdL-470" value="" style="rounded=1;whiteSpace=wrap;html=1;" vertex="1" parent="1">
          <mxGeometry x="109" y="1204" width="58" height="47" as="geometry" />
        </mxCell>
        <mxCell id="y4HOhwScAJo7vnwQhUdL-471" value="" style="html=1;whiteSpace=wrap;shape=isoCube2;backgroundOutline=1;isoAngle=15;fillColor=#f8cecc;strokeColor=#b85450;" vertex="1" parent="1">
          <mxGeometry x="116" y="1211" width="20" height="20" as="geometry" />
        </mxCell>
        <mxCell id="y4HOhwScAJo7vnwQhUdL-472" value="" style="html=1;whiteSpace=wrap;shape=isoCube2;backgroundOutline=1;isoAngle=15;fillColor=#f8cecc;strokeColor=#b85450;" vertex="1" parent="1">
          <mxGeometry x="139" y="1211" width="20" height="20" as="geometry" />
        </mxCell>
        <mxCell id="y4HOhwScAJo7vnwQhUdL-473" value="&lt;div style=&quot;text-align: center;&quot;&gt;&lt;span style=&quot;background-color: initial;&quot;&gt;K&lt;/span&gt;&lt;/div&gt;" style="text;whiteSpace=wrap;html=1;" vertex="1" parent="1">
          <mxGeometry x="119" y="1225" width="19" height="20" as="geometry" />
        </mxCell>
        <mxCell id="y4HOhwScAJo7vnwQhUdL-474" value="&lt;div style=&quot;text-align: center;&quot;&gt;&lt;span style=&quot;background-color: initial;&quot;&gt;V&lt;/span&gt;&lt;/div&gt;" style="text;whiteSpace=wrap;html=1;" vertex="1" parent="1">
          <mxGeometry x="143" y="1225" width="18" height="20" as="geometry" />
        </mxCell>
        <mxCell id="y4HOhwScAJo7vnwQhUdL-475" value="+" style="text;html=1;align=center;verticalAlign=middle;whiteSpace=wrap;rounded=0;fontSize=16;fontStyle=1" vertex="1" parent="1">
          <mxGeometry x="161" y="1205.5" width="35" height="30" as="geometry" />
        </mxCell>
        <mxCell id="y4HOhwScAJo7vnwQhUdL-476" value="" style="rounded=1;whiteSpace=wrap;html=1;" vertex="1" parent="1">
          <mxGeometry x="355" y="1205" width="58" height="47" as="geometry" />
        </mxCell>
        <mxCell id="y4HOhwScAJo7vnwQhUdL-477" value="" style="html=1;whiteSpace=wrap;shape=isoCube2;backgroundOutline=1;isoAngle=15;fillColor=#d5e8d4;strokeColor=#82b366;" vertex="1" parent="1">
          <mxGeometry x="362" y="1212" width="20" height="20" as="geometry" />
        </mxCell>
        <mxCell id="y4HOhwScAJo7vnwQhUdL-478" value="" style="html=1;whiteSpace=wrap;shape=isoCube2;backgroundOutline=1;isoAngle=15;fillColor=#d5e8d4;strokeColor=#82b366;" vertex="1" parent="1">
          <mxGeometry x="385" y="1212" width="20" height="20" as="geometry" />
        </mxCell>
        <mxCell id="y4HOhwScAJo7vnwQhUdL-479" value="&lt;div style=&quot;text-align: center;&quot;&gt;&lt;span style=&quot;background-color: initial;&quot;&gt;K&lt;/span&gt;&lt;/div&gt;" style="text;whiteSpace=wrap;html=1;" vertex="1" parent="1">
          <mxGeometry x="365" y="1226" width="19" height="20" as="geometry" />
        </mxCell>
        <mxCell id="y4HOhwScAJo7vnwQhUdL-480" value="&lt;div style=&quot;text-align: center;&quot;&gt;&lt;span style=&quot;background-color: initial;&quot;&gt;V&lt;/span&gt;&lt;/div&gt;" style="text;whiteSpace=wrap;html=1;" vertex="1" parent="1">
          <mxGeometry x="389" y="1226" width="18" height="20" as="geometry" />
        </mxCell>
        <mxCell id="y4HOhwScAJo7vnwQhUdL-481" value="" style="rounded=1;whiteSpace=wrap;html=1;" vertex="1" parent="1">
          <mxGeometry x="272" y="1205" width="58" height="47" as="geometry" />
        </mxCell>
        <mxCell id="y4HOhwScAJo7vnwQhUdL-482" value="" style="html=1;whiteSpace=wrap;shape=isoCube2;backgroundOutline=1;isoAngle=15;fillColor=#dae8fc;strokeColor=#6c8ebf;" vertex="1" parent="1">
          <mxGeometry x="279" y="1212" width="20" height="20" as="geometry" />
        </mxCell>
        <mxCell id="y4HOhwScAJo7vnwQhUdL-483" value="" style="html=1;whiteSpace=wrap;shape=isoCube2;backgroundOutline=1;isoAngle=15;fillColor=#dae8fc;strokeColor=#6c8ebf;" vertex="1" parent="1">
          <mxGeometry x="302" y="1212" width="20" height="20" as="geometry" />
        </mxCell>
        <mxCell id="y4HOhwScAJo7vnwQhUdL-484" value="&lt;div style=&quot;text-align: center;&quot;&gt;&lt;span style=&quot;background-color: initial;&quot;&gt;K&lt;/span&gt;&lt;/div&gt;" style="text;whiteSpace=wrap;html=1;" vertex="1" parent="1">
          <mxGeometry x="282" y="1226" width="19" height="20" as="geometry" />
        </mxCell>
        <mxCell id="y4HOhwScAJo7vnwQhUdL-485" value="&lt;div style=&quot;text-align: center;&quot;&gt;&lt;span style=&quot;background-color: initial;&quot;&gt;V&lt;/span&gt;&lt;/div&gt;" style="text;whiteSpace=wrap;html=1;" vertex="1" parent="1">
          <mxGeometry x="306" y="1226" width="18" height="20" as="geometry" />
        </mxCell>
        <mxCell id="y4HOhwScAJo7vnwQhUdL-486" value="+" style="text;html=1;align=center;verticalAlign=middle;whiteSpace=wrap;rounded=0;fontSize=16;fontStyle=1" vertex="1" parent="1">
          <mxGeometry x="243" y="1205.5" width="35" height="30" as="geometry" />
        </mxCell>
        <mxCell id="y4HOhwScAJo7vnwQhUdL-487" value="+" style="text;html=1;align=center;verticalAlign=middle;whiteSpace=wrap;rounded=0;fontSize=16;fontStyle=1" vertex="1" parent="1">
          <mxGeometry x="324" y="1205.5" width="35" height="30" as="geometry" />
        </mxCell>
        <mxCell id="y4HOhwScAJo7vnwQhUdL-488" value="&lt;span style=&quot;color: rgb(0, 0, 0); font-family: Helvetica; font-size: 12px; font-style: normal; font-variant-ligatures: normal; font-variant-caps: normal; font-weight: 400; letter-spacing: normal; orphans: 2; text-align: center; text-indent: 0px; text-transform: none; widows: 2; word-spacing: 0px; -webkit-text-stroke-width: 0px; white-space: normal; text-decoration-thickness: initial; text-decoration-style: initial; text-decoration-color: initial; float: none; display: inline !important;&quot;&gt;step 1&lt;/span&gt;" style="text;whiteSpace=wrap;html=1;labelBackgroundColor=none;" vertex="1" parent="1">
          <mxGeometry x="120" y="1181" width="40" height="20" as="geometry" />
        </mxCell>
        <mxCell id="y4HOhwScAJo7vnwQhUdL-489" value="&lt;span style=&quot;font-family: Helvetica; font-size: 12px; font-style: normal; font-variant-ligatures: normal; font-variant-caps: normal; font-weight: 400; letter-spacing: normal; orphans: 2; text-align: center; text-indent: 0px; text-transform: none; widows: 2; word-spacing: 0px; -webkit-text-stroke-width: 0px; white-space: normal; text-decoration-thickness: initial; text-decoration-style: initial; text-decoration-color: initial; float: none; display: inline !important;&quot;&gt;step 2&lt;/span&gt;" style="text;whiteSpace=wrap;html=1;fontColor=default;labelBackgroundColor=none;" vertex="1" parent="1">
          <mxGeometry x="202" y="1180" width="46" height="20" as="geometry" />
        </mxCell>
        <mxCell id="y4HOhwScAJo7vnwQhUdL-490" value="&lt;span style=&quot;font-family: Helvetica; font-size: 12px; font-style: normal; font-variant-ligatures: normal; font-variant-caps: normal; font-weight: 400; letter-spacing: normal; orphans: 2; text-align: center; text-indent: 0px; text-transform: none; widows: 2; word-spacing: 0px; -webkit-text-stroke-width: 0px; white-space: normal; text-decoration-thickness: initial; text-decoration-style: initial; text-decoration-color: initial; float: none; display: inline !important;&quot;&gt;step 3&lt;/span&gt;" style="text;whiteSpace=wrap;html=1;fontColor=default;labelBackgroundColor=none;" vertex="1" parent="1">
          <mxGeometry x="280" y="1180" width="46" height="20" as="geometry" />
        </mxCell>
        <mxCell id="y4HOhwScAJo7vnwQhUdL-491" value="&lt;span style=&quot;font-family: Helvetica; font-size: 12px; font-style: normal; font-variant-ligatures: normal; font-variant-caps: normal; font-weight: 400; letter-spacing: normal; orphans: 2; text-align: center; text-indent: 0px; text-transform: none; widows: 2; word-spacing: 0px; -webkit-text-stroke-width: 0px; white-space: normal; text-decoration-thickness: initial; text-decoration-style: initial; text-decoration-color: initial; float: none; display: inline !important;&quot;&gt;step 4&lt;/span&gt;" style="text;whiteSpace=wrap;html=1;fontColor=default;labelBackgroundColor=none;" vertex="1" parent="1">
          <mxGeometry x="363" y="1180" width="46" height="20" as="geometry" />
        </mxCell>
        <mxCell id="y4HOhwScAJo7vnwQhUdL-494" value="&lt;span style=&quot;color: rgb(0, 0, 0); font-family: Helvetica; font-size: 12px; font-style: normal; font-variant-ligatures: normal; font-variant-caps: normal; font-weight: 400; letter-spacing: normal; orphans: 2; text-align: center; text-indent: 0px; text-transform: none; widows: 2; word-spacing: 0px; -webkit-text-stroke-width: 0px; white-space: normal; text-decoration-thickness: initial; text-decoration-style: initial; text-decoration-color: initial; float: none; display: inline !important;&quot;&gt;local&lt;/span&gt;" style="text;whiteSpace=wrap;html=1;labelBackgroundColor=none;" vertex="1" parent="1">
          <mxGeometry x="50" y="1181" width="40" height="20" as="geometry" />
        </mxCell>
        <mxCell id="y4HOhwScAJo7vnwQhUdL-495" value="" style="html=1;whiteSpace=wrap;shape=isoCube2;backgroundOutline=1;isoAngle=15;fillColor=#f8cecc;strokeColor=#b85450;" vertex="1" parent="1">
          <mxGeometry x="54" y="1211" width="20" height="20" as="geometry" />
        </mxCell>
      </root>
    </mxGraphModel>
  </diagram>
</mxfile>
